<svg width="1440" height="864" viewBox="0 0 1440 864" fill="none" xmlns="http://www.w3.org/2000/svg">
<path d="M0.333227 848.933L9.66359 844.961L26.2 863.549L29.1574 863.549L11.7879 844.061L33.2811 834.917C38.9876 840.576 44.5691 846.085 49.8591 851.294L31.9898 863.549L35.8219 863.549L51.4836 852.831C55.3157 856.579 59.0229 860.176 62.5218 863.549L78.3917 863.549C75.6842 860.926 72.8102 858.153 69.7278 855.229L81.0159 846.61L88.9717 855.529L79.8079 863.549L83.1402 863.549L90.4295 857.141L96.1361 863.549L99.0935 863.549L92.0957 855.679L101.051 847.809L120.462 857.628L116.088 863.549L118.879 863.549L136.165 840.051L155.242 845.073C155.242 845.073 155.492 845.148 155.659 845.111L189.398 844.024L192.772 863.512L195.105 863.512L191.731 843.949L213.474 843.237L217.014 854.817L213.14 863.512L215.64 863.512L219.305 855.267C219.389 855.042 219.43 854.817 219.347 854.592L215.64 842.487L226.636 833.155C241.048 842.225 259.709 853.506 276.454 863.512L297.447 863.512C292.199 860.401 286.784 857.178 281.327 853.918L356.262 765.247C356.262 765.247 356.262 765.209 356.303 765.172L356.303 765.097L393.125 707.869L473.683 588.954L562.654 466.366C565.445 464.605 593.228 447.14 600.725 441.631C606.557 437.359 628.05 415.585 639.047 404.341C649.21 401.006 656.999 398.457 661.498 396.996L702.068 453.024C670.537 471.538 642.546 493.537 617.803 519.172C606.849 530.527 593.894 545.555 579.69 563.02C579.566 563.17 579.441 563.282 579.357 563.432C504.256 655.851 394.583 815.916 362.26 863.549L375.839 863.549C382.753 853.393 392.167 839.601 403.372 823.374L427.489 861.226C427.697 861.563 428.155 861.788 428.572 861.751L446.65 860.514C447.191 860.476 447.649 860.102 447.733 859.577L448.607 852.231L461.395 846.497L469.184 859.989C469.434 860.439 470.017 860.664 470.559 860.514L496.092 852.868L502.548 862.575C502.84 863.025 503.465 863.212 504.006 862.987L532.664 851.182L538.704 863.662L541.244 863.662L534.788 850.32L553.49 842.6L563.404 863.662L565.903 863.662L555.615 841.813L580.523 833.568L588.771 855.904L568.902 863.662L580.523 863.662L767.547 790.619C773.171 802.387 778.96 814.492 784.584 826.222L680.908 863.549L687.115 863.549L785.417 828.021C791.456 840.651 797.246 852.793 802.37 863.549L814.991 863.549C814.532 862.612 814.074 861.638 813.616 860.701L848.813 851.182L853.895 863.549L856.352 863.549L851.021 850.582L951.905 823.336L950.989 850.133C950.989 850.133 950.906 850.133 950.864 850.133L919.332 863.512L924.747 863.512L950.906 852.419L950.531 863.512L952.863 863.512L954.238 823.149L1049.79 839.939C1049.79 839.939 1049.96 839.939 1050.04 839.939L1120.85 837.315C1120.85 837.315 1120.98 837.315 1121.02 837.315L1132.01 836.903L1124.77 863.512L1136.68 863.512L1143.76 837.428L1338.07 863.137L1337.95 863.549L1357.19 863.549L1343.41 861.713L1351.9 836.978L1369.15 842.862L1370.31 853.243C1370.36 853.73 1370.81 854.105 1371.35 854.18L1390.81 855.942C1391.43 855.979 1392.02 855.567 1392.06 855.005C1392.14 854.442 1391.64 853.918 1391.02 853.88L1372.52 852.194L1371.35 842C1371.31 841.625 1371.02 841.288 1370.61 841.138L1352.53 834.992L1357.28 821.2C1357.28 821.2 1357.32 821.05 1357.32 820.975L1358.36 816.328L1374.4 820.001C1374.9 820.113 1375.4 819.926 1375.65 819.551L1408.43 772.442C1408.76 771.993 1408.63 771.355 1408.14 771.056L1386.89 757.414L1410.18 724.434C1420.59 730.355 1430.71 736.277 1439.96 741.898L1439.96 729.456C1432.46 724.996 1424.5 720.349 1416.34 715.702L1439.96 682.235L1439.96 674.477L1412.38 713.491C1388.43 699.961 1363.02 686.545 1342.7 676.838C1345.78 670.092 1350.69 659.299 1355.61 647.868L1423.71 674.589C1424.3 674.814 1424.96 674.589 1425.25 674.065C1425.5 673.54 1425.25 672.94 1424.67 672.678L1399.51 662.822L1401.3 611.29L1408.13 606.343C1408.63 605.969 1408.72 605.332 1408.3 604.882C1408.09 604.62 1407.72 604.507 1407.39 604.507C1407.14 604.507 1406.89 604.582 1406.68 604.732L1399.43 609.979C1399.18 610.166 1399.01 610.466 1399.01 610.766L1397.22 661.96L1356.44 645.957C1361.73 633.552 1366.9 620.66 1369.69 611.665C1376.81 588.429 1375.19 545.668 1375.1 543.869C1375.1 543.044 1374.48 542.295 1373.65 541.995L1242.65 496.31C1243.73 493.237 1244.77 490.389 1245.77 487.841L1247.44 484.805L1369.69 463.78L1371.15 464.642C1377.48 482.706 1413.22 584.382 1420.3 603.87C1421.46 607.093 1423.01 610.091 1424.8 612.827L1414.88 625.419C1414.72 625.644 1414.63 625.906 1414.67 626.206C1414.72 626.469 1414.88 626.731 1415.13 626.881L1428.5 635.388C1429.05 635.726 1429.75 635.613 1430.13 635.126C1430.5 634.639 1430.38 634.002 1429.84 633.664L1417.42 625.757L1426.13 614.738C1430.25 620.397 1435.29 624.857 1440 628.268L1440 625.494C1433.25 620.36 1426 612.939 1422.46 603.233C1415.67 584.494 1382.35 489.639 1374.19 466.404L1429.54 498.634L1416.26 520.408C1415.97 520.895 1416.17 521.533 1416.72 521.832C1417.26 522.095 1417.97 521.907 1418.3 521.42L1431.5 499.796L1440 504.743L1440 499.796L1375.02 461.944L1440 436.01L1440 431.437L1423.51 437.996L1416.55 432.487C1416.34 432.299 1416.01 432.224 1415.76 432.224L1392.47 432.749L1392.47 408.576L1405.47 406.103C1405.93 406.028 1406.3 405.691 1406.39 405.278L1411.76 378.332L1440 381.143L1440 379.044L1432.5 378.295L1428.63 287.263C1428.63 287.263 1428.59 286.963 1428.5 286.813L1423.55 278.38C1426.88 264.626 1428.05 246.338 1429.5 223.851C1429.54 223.177 1429.59 222.427 1429.63 221.752C1433.13 221.04 1436.63 220.366 1440 219.691L1440 209.01C1436.88 209.647 1433.63 210.284 1430.34 210.959C1430.63 206.687 1430.96 202.302 1431.29 197.842L1440 196.118L1440 193.982L1431.46 195.668C1432.04 188.248 1432.75 180.528 1433.67 172.657L1440 172.02L1440 169.922L1433.92 170.521C1434.09 169.172 1434.21 167.86 1434.38 166.474C1435.83 154.668 1437.79 137.953 1440 118.765L1440 16.5649C1439.21 23.4607 1438.42 30.5064 1437.63 37.6645L1370.9 29.1572L1333.49 23.7979L1333.49 -5.82888e-05L1331.16 -5.81868e-05L1331.16 23.4606L1270.26 14.7285L1273.84 -5.56815e-05L1271.47 -5.55777e-05L1267.97 14.3912L1210.16 6.10877C1210.24 4.04755 1210.45 2.02369 1210.7 -5.29213e-05L1199.03 -5.24115e-05C1198.58 4.08497 1198.41 8.28236 1198.62 12.6297C1199.08 23.7979 1202.87 34.2916 1208.07 43.6609L1182.37 71.9187L1158.17 59.3264C1158.17 59.3264 1158.13 59.3264 1158.09 59.3264C1158.09 59.3264 1158.09 59.3264 1158.05 59.2889L1139.43 52.1307L1156.84 17.6143L1156.84 17.5393C1156.84 17.5393 1156.84 17.5018 1156.84 17.4644L1156.84 17.3894C1156.84 17.3894 1156.84 17.3145 1156.84 17.277L1158.26 0.037486L1155.92 0.0374861L1154.63 15.8529L1095.53 1.46162L1095.86 0.0374887L1093.49 0.0374888L1089.28 18.4762L1045.25 5.47163L1046.38 0.0374909L1044.04 0.037491L1042.79 6.0713L1032.3 83.649L990.435 70.7194C995.85 44.6727 999.723 25.447 1000.76 20.2376C1004.43 15.2532 1009.68 8.17006 1015.64 0.0374922L1001.72 0.0374928C999.848 2.58595 997.974 5.09688 996.183 7.57039L992.351 0.0374932L979.605 0.0374938L989.227 18.9259C985.061 39.5383 978.897 69.5576 972.024 102.163C959.111 99.1272 936.119 93.5055 909.919 86.1975L918.333 67.5339C918.333 67.5339 918.416 67.309 918.416 67.1966C918.416 67.0092 919.374 49.0576 918.416 38.0393C918.249 36.128 916.333 31.106 913.293 24.0603C913.293 24.0603 913.293 24.0604 913.293 24.0229C910.46 17.5019 906.628 9.25686 902.213 0.0374972L899.672 0.0374973C904.004 9.14443 907.878 17.3519 910.752 23.8729L884.968 33.7669C884.385 33.9918 884.093 34.5915 884.343 35.1161C884.593 35.6408 885.26 35.9032 885.843 35.6783L911.543 25.8217C914.251 32.0804 915.958 36.5402 916.083 38.2266C916.958 48.5703 916.167 65.0604 916.083 66.9718L907.669 85.6353C899.214 83.2743 890.467 80.7258 881.594 78.0274L852.729 16.8647L895.048 0.074912L889.3 0.0749123L851.812 14.9159L844.814 0.0749142L842.315 0.0749144L878.679 77.0906C847.938 67.6463 816.532 56.4781 794.039 44.8227L808.243 30.8812C808.534 30.6189 808.618 30.2066 808.493 29.8693L797.996 0.0749163L793.372 0.0749165L779.335 8.28244L773.962 0.0749173L771.254 0.0749175L777.961 10.2688C778.127 10.5311 778.377 10.6809 778.71 10.7559C779.002 10.8308 779.335 10.7559 779.585 10.606L795.913 1.04934L806.077 29.9068L791.956 43.7733C774.087 34.5539 757.342 26.9461 741.139 20.7249L749.095 1.46164L751.427 0.0749183L747.345 0.0749185C747.345 0.0749185 747.096 0.299833 747.012 0.449735L739.015 19.9378C713.773 10.456 689.822 4.42227 664.872 1.2742L664.872 0.0749221L662.539 0.0749222L662.539 1.01187C659.54 0.674593 656.541 0.374727 653.5 0.0749226L582.065 0.0749257L582.065 0.149877C575.275 0.599584 568.194 1.16184 561.03 1.79893C561.03 1.27427 561.03 0.712073 561.03 0.112463L556.406 0.112463C556.406 0.862036 556.406 1.57407 556.406 2.21116C543.327 3.41044 529.956 4.7971 517.044 6.22123L515.919 0.0749286L513.587 0.0749287L514.753 6.48356C496.05 8.58225 478.389 10.831 464.061 12.7048L462.561 0.074931L460.228 0.0749311L461.77 13.0046C447.149 14.9533 436.319 16.4899 431.863 17.127L427.447 1.38664L436.07 0.0749321L406.662 0.0749334L424.24 1.83635C424.24 1.83635 424.448 1.83635 424.573 1.83635L425.115 1.76139L429.488 17.3144L397.915 14.9534L396.124 0.0749339L391.459 0.0749341L393.208 14.5787L335.31 10.2688L336.976 0.0749364L334.643 0.0749365L332.977 10.0814L299.363 7.57042L296.406 0.0375237L284.118 0.0375242L286.117 5.17186L273.871 2.51104C273.788 1.76146 273.705 0.937 273.58 0.0375247L261.958 0.0375252C262.208 2.24871 262.458 4.38488 262.708 6.48357C260.459 16.7898 236.633 126.186 214.39 229.81C195.563 226.999 175.194 223.926 158.241 221.34C158.033 221.34 157.783 221.303 157.575 221.34L43.8194 234.12C43.5278 234.12 43.2779 234.232 43.0279 234.345L0.0416268 254.658L0.041627 259.38L44.7774 238.242L157.783 225.538C163.781 226.437 188.44 230.222 213.474 233.933C209.725 251.285 206.059 268.449 202.561 284.902C180.859 289.624 105.3 306.414 95.8028 313.159C87.8054 318.856 92.5122 327.138 99.0101 338.569C102.092 343.966 105.55 350.074 108.34 357.008C116.255 376.833 127.626 411.537 129.042 415.959L101.801 453.024C101.801 453.024 101.593 453.437 101.593 453.661L107.299 565.194C107.299 565.456 107.424 565.718 107.632 565.906L113.797 571.377C71.7272 585.806 40.9869 596.375 37.1548 597.686C34.6973 598.173 20.4935 601.097 0.0416421 605.182L0.0416426 615.863C15.7033 612.715 28.0744 610.241 34.7806 608.854L40.2372 626.356C40.2372 626.356 39.904 626.769 39.8623 627.031L37.6963 644.383C37.6963 644.383 37.6963 644.645 37.6963 644.795L47.0683 673.802L-8.02381e-06 680.099L-7.93207e-06 682.197L53.5246 675.002L44.5691 696.926L0.0416463 701.311L0.0416464 703.409L44.6108 699.025L84.6814 810.069C84.6814 810.069 84.848 810.369 84.973 810.519L108.091 830.495L57.8566 817.228L17.0362 771.356C17.0362 771.168 16.9529 770.943 16.7863 770.793C16.6614 770.643 16.4531 770.569 16.2865 770.494L0.333222 752.579L0.333223 755.915L14.1622 771.468L0.333224 782.149L0.333224 784.885L15.62 773.079L32.0731 791.556L16.6614 802.349C11.0381 796.578 5.58155 790.806 0.333224 785.222L0.333225 801.3C3.45723 804.56 6.58124 807.821 9.74689 811.081L0.333225 816.703L0.333225 819.214L11.2881 812.693C18.0776 819.664 24.9504 826.597 31.6982 833.305L10.58 842.3L0.333226 825.735L0.333226 830.007L8.49729 843.199L0.333227 846.685L0.333227 849.008L0.333227 848.933ZM68.1866 853.655C63.1049 848.708 57.6483 843.387 51.9418 837.803L58.4814 832.743L73.0184 849.945L68.145 853.655L68.1866 853.655ZM74.8095 848.596L60.2725 831.394L64.5628 828.059L79.5997 844.923L74.8095 848.559L74.8095 848.596ZM121.753 855.904L102.467 846.16L110.715 833.343L133.916 839.452L121.795 855.904L121.753 855.904ZM135.207 837.653L111.881 831.506L125.793 809.882L148.869 794.367L159.158 811.644L148.911 819.214C148.911 819.214 148.744 819.364 148.661 819.439L135.207 837.728L135.207 837.653ZM309.818 694.527L341.058 744.035C340.642 743.81 340.1 743.81 339.684 744.11L305.986 770.756L249.629 714.465L229.594 660.948L284.993 644.683L287.2 644.046L297.739 640.935L311.068 676.313L309.651 693.928C309.651 694.115 309.651 694.34 309.818 694.527ZM185.358 729.868L175.986 708.769L188.148 706.595L224.22 740.999L180.734 770.269C175.153 762.998 169.363 755.465 163.865 748.195L185.108 731.03C185.483 730.73 185.608 730.281 185.399 729.868L185.358 729.868ZM216.806 691.267C216.473 691.267 216.181 691.379 215.931 691.604L196.271 711.317L189.356 704.721C189.065 704.459 188.69 704.346 188.273 704.421L175.111 706.782L162.532 675.227L227.303 661.51L238.466 691.267L216.764 691.267L216.806 691.267ZM239.299 693.365L247.546 715.327C247.546 715.327 247.671 715.589 247.796 715.702L271.497 739.387L247.838 760.487L197.937 712.891L217.389 693.403L239.34 693.403L239.299 693.365ZM184.275 793.055L160.99 810.257L150.744 793.055L172.778 778.214C176.819 783.423 180.692 788.445 184.233 793.055L184.275 793.055ZM185.608 794.779C189.315 799.538 192.605 803.811 195.313 807.296L186.566 815.091L184.733 816.74L171.737 828.321L162.115 812.131L185.608 794.779ZM182.025 771.993L225.803 742.536L246.172 761.949L203.56 799.913C198.02 792.792 190.314 782.786 182.025 771.993ZM247.754 763.448L277.578 791.893L246.547 814.942L217.597 790.994C217.597 790.994 217.264 790.806 217.098 790.769L247.754 763.448ZM249.379 761.986L272.996 740.924L304.195 772.105L279.328 790.581L249.379 761.986ZM227.844 659.299L161.782 673.278L141.871 623.283L233.467 593.901L264.832 584.082L284.326 642.734L227.886 659.336L227.844 659.299ZM159.533 673.765L122.961 681.523C122.753 681.298 122.586 681.073 122.378 680.886L77.392 644.008L139.747 623.995L159.574 673.802L159.533 673.765ZM160.324 675.751L173.32 708.394L182.9 729.981L162.49 746.508C148.12 727.657 135.79 711.28 134.166 708.581C132.791 705.471 127.085 691.079 124.085 683.434L160.324 675.751ZM171.487 776.527L149.661 791.218L136.998 769.969L155.159 755.278C160.532 762.324 166.114 769.557 171.487 776.527ZM155.326 842.974L137.581 838.29L150.535 820.676L160.282 813.48L170.029 829.857L155.326 842.974ZM158.575 842.974L185.191 819.251L189.106 841.963L158.575 842.937L158.575 842.974ZM213.89 841.176L191.397 841.888L187.19 817.415L196.646 808.983C200.395 813.78 202.685 816.74 202.81 816.853C204.56 818.877 213.057 824.573 224.72 831.956L213.89 841.138L213.89 841.176ZM211.933 810.482C211.183 809.62 208.642 806.434 204.935 801.637L215.723 792.005C215.765 792.193 215.848 792.38 216.056 792.53L244.755 816.291L233.342 824.761C221.763 817.527 213.557 812.168 211.933 810.482ZM279.369 852.793C263.499 843.312 247.671 833.68 235.3 825.997L306.611 773.005L341.183 745.684C341.433 745.459 341.558 745.196 341.558 744.897L353.929 764.535L279.369 852.793ZM391.126 706.857L355.387 762.548L312.026 693.778L313.4 676.276C313.4 676.276 313.4 676.014 313.359 675.864L299.946 640.298L470.142 590.303L391.167 706.857L391.126 706.857ZM286.492 642.059L266.665 582.396C266.582 582.133 266.374 581.908 266.082 581.758C265.915 581.683 265.749 581.646 265.54 581.646C265.415 581.646 265.291 581.646 265.166 581.721L233.759 591.54L218.181 546.642C279.078 525.693 340.433 504.518 374.631 492.6L392.375 543.569C392.458 543.831 392.667 544.056 392.958 544.169C393.25 544.281 393.541 544.319 393.875 544.244L448.482 527.679L471.225 587.755L286.492 642.059ZM258.668 269.349L287.408 259.904L266.124 329.687L248.754 327.888L258.668 269.349ZM246.463 327.663L235.425 326.501L242.215 274.745L256.21 270.136L246.463 327.626L246.463 327.663ZM329.77 171.833C330.062 171.87 330.395 171.833 330.645 171.646C330.895 171.496 331.061 171.233 331.103 170.971L336.101 142.039C336.185 141.514 335.81 140.989 335.227 140.877L314.691 136.679L316.358 126.561L357.678 131.995C358.011 132.032 358.386 131.957 358.636 131.732L364.842 126.448L381.629 127.647L375.755 178.354C375.755 178.354 375.505 178.429 375.38 178.504C368.758 182.551 361.385 187.086 353.679 191.733L342.433 181.727C342.224 181.54 341.933 181.427 341.6 181.427C341.308 181.427 341.058 181.502 340.85 181.689L319.023 198.854L304.861 196.118L309.443 168.348L329.728 171.833L329.77 171.833ZM309.86 166.286L314.4 138.703L333.685 142.638L329.02 169.547L309.818 166.249L309.86 166.286ZM497.883 40.138L529.831 34.7413C529.831 34.7413 529.831 34.8538 529.831 34.8913L537.954 75.1418L504.798 80.2011L497.883 40.138ZM498.466 57.0777L454.855 61.0503C453.98 55.2039 453.189 50.107 452.856 47.7834L495.634 40.5503L498.508 57.0777L498.466 57.0777ZM539.495 77.0156C539.786 76.9781 540.078 76.8282 540.245 76.6034C540.411 76.3785 540.495 76.0787 540.453 75.8163L532.122 34.554C532.122 34.554 532.081 34.4415 532.039 34.404L558.156 29.9818L566.32 69.9325C566.32 69.9325 566.07 70.1198 565.987 70.1948L523.583 119.252L508.213 100.326L505.089 82.2998L539.453 77.0531L539.495 77.0156ZM245.297 510.402L242.34 505.193L244.964 481.657L284.701 480.495L283.535 492.075L245.297 510.402ZM283.285 494.512L281.369 513.737C272.08 516.923 262.541 520.221 252.836 523.556L246.38 512.238L283.326 494.512L283.285 494.512ZM321.439 359.256L352.305 355.359L355.553 377.32C355.595 377.62 355.803 377.882 356.053 378.032C356.345 378.182 356.678 378.257 357.011 378.182L407.87 365.702L423.532 403.067L363.051 422.48L350.888 426.378L341.558 402.955C341.35 402.468 340.767 402.168 340.225 402.28L303.695 409.663L321.481 359.256L321.439 359.256ZM311.942 379.194L277.87 367.464L281.41 346.814L288.367 353.822C288.367 353.822 288.783 354.122 289.033 354.159L319.107 359.144L312.026 379.232C312.026 379.232 312.026 379.232 311.984 379.232L311.942 379.194ZM354.512 196.193L360.26 206.986L336.06 221.003C335.643 221.265 335.435 221.715 335.56 222.165L341.433 239.854L329.395 243.789L317.357 218.417C329.603 211.184 342.724 203.276 354.512 196.156L354.512 196.193ZM326.938 207.736L320.981 200.016L341.641 183.751L351.805 192.783C343.641 197.73 335.143 202.827 326.938 207.736ZM338.059 222.352L362.385 208.261C362.884 207.961 363.051 207.399 362.801 206.949L356.47 195.031C363.093 191.021 369.216 187.273 374.422 184.088L359.552 233.97L343.641 239.179L338.059 222.352ZM561.613 194.132C561.904 194.656 562.571 194.881 563.154 194.619C563.737 194.357 563.987 193.757 563.696 193.232L558.697 183.863L578.691 176.143C579.232 175.918 579.524 175.356 579.316 174.831L571.318 154.144L631.591 128.959L653.417 186.074C562.404 221.715 457.563 262.903 449.982 265.901L449.732 265.976L429.613 213.17L432.237 212.308L471.891 195.743L545.993 164.75L561.655 194.132L561.613 194.132ZM548.034 163.888L569.235 155.043L576.816 174.644L557.697 181.989L548.034 163.888ZM757.217 266.538L696.237 291.872L675.702 238.055L737.723 214.107L757.217 266.575L757.217 266.538ZM739.848 213.245L786.333 195.294L800.703 221.34C800.828 221.603 801.078 221.79 801.412 221.865C801.703 221.94 802.036 221.902 802.328 221.79L814.407 215.756L828.445 236.931L759.342 265.638L739.889 213.245L739.848 213.245ZM674.91 236.031L656.249 187.199C669.12 182.139 681.741 177.23 693.696 172.545L699.527 189.147C699.611 189.41 699.861 189.635 700.152 189.784C700.444 189.897 700.777 189.934 701.069 189.784L725.394 181.052L736.89 212.046L674.827 235.994L674.91 236.031ZM672.786 236.856L580.649 272.422L576.525 263.577C576.358 263.165 575.9 262.94 575.442 262.94C575.275 262.94 575.15 262.94 574.984 263.015C574.401 263.24 574.109 263.839 574.359 264.364L578.524 273.246L468.642 315.67L450.44 267.924L450.773 267.812C452.648 267.062 560.655 224.638 654.125 188.023L672.744 236.856L672.786 236.856ZM368.466 437.921L357.095 441.894L351.68 428.289L362.801 424.729L368.466 437.921ZM364.967 424.017L404.496 411.312L409.161 423.68L370.632 437.171L364.967 424.017ZM354.929 442.643L310.651 458.121L305.07 443.243L349.472 429.001L354.929 442.643ZM308.485 458.871L288.491 465.841L290.283 447.965L302.904 443.917L308.485 458.871ZM309.235 460.857L316.566 480.458L299.946 486.229L286.076 491.064L288.367 468.165L309.318 460.82L309.235 460.857ZM311.401 460.107L355.72 444.592L363.509 464.155L318.69 479.708L311.359 460.107L311.401 460.107ZM357.886 443.842L370.382 439.458L409.911 425.628L417.409 445.454L365.675 463.406L357.886 443.842ZM412.077 424.879L446.483 412.849L454.605 432.562L419.575 444.704L412.077 424.879ZM411.327 422.893L406.662 410.6L440.985 399.582L445.65 410.9L411.286 422.893L411.327 422.893ZM425.698 402.28L416.826 381.143C416.826 381.143 416.951 381.143 417.034 381.143L432.196 378.332L440.193 397.67L425.698 402.318L425.698 402.28ZM434.445 377.808L451.065 374.06L457.396 390.925L445.566 395.834L442.276 396.883L434.362 377.77L434.445 377.808ZM452.939 372.486C452.773 372.036 452.314 371.774 451.856 371.774C451.773 371.774 451.648 371.774 451.565 371.774L432.654 376.009L416.534 379.007C416.534 379.007 416.201 379.119 416.034 379.232L401.206 343.853L467.226 318.369L489.761 377.47L459.562 390.025L452.939 372.448L452.939 372.486ZM382.545 351.124L399.123 344.715L407.037 363.604L387.793 368.326L382.545 351.124ZM385.544 368.888L357.636 375.746L354.554 354.946L380.296 351.686L385.544 368.888ZM471.85 193.345L452.356 157.404L524.208 123.975L544.91 162.763L471.85 193.307L471.85 193.345ZM469.767 194.207L431.321 210.285L428.822 211.109L414.993 174.794L450.357 158.341L469.809 194.207L469.767 194.207ZM426.656 211.821L362.135 232.996L377.255 182.177C377.255 182.177 377.505 182.027 377.63 181.952L412.744 175.468L426.614 211.821L426.656 211.821ZM361.427 235.432L379.546 229.473C379.546 229.473 379.546 229.51 379.546 229.548L387.752 257.093L352.513 265.488L361.468 235.432L361.427 235.432ZM389.418 258.855C389.709 258.78 389.959 258.593 390.126 258.368C390.292 258.143 390.334 257.843 390.251 257.581L381.753 229.023C381.753 229.023 381.67 228.873 381.629 228.798L427.406 213.77L447.524 266.538L382.628 287.225L342.141 300.117L351.763 267.812L389.418 258.855ZM382.212 289.549L388.001 306.301C388.21 306.863 388.835 307.163 389.459 306.976C390.084 306.788 390.417 306.226 390.209 305.664L384.378 288.837L448.232 268.487L466.477 316.382L380.837 349.437L353.096 352.96L322.189 356.895L341.35 302.553L382.17 289.549L382.212 289.549ZM339.684 404.341L348.681 426.903L290.991 445.416L302.862 411.762L302.945 411.762L339.684 404.341ZM288.491 445.679L271.705 438.521L277.495 409.139L300.488 411.612L288.45 445.716L288.491 445.679ZM284.909 478.209L245.172 479.371L247.13 461.719L287.867 448.639L284.909 478.171L284.909 478.209ZM285.742 493.275L299.53 488.478L305.653 505.193C298.572 507.629 291.282 510.139 283.785 512.725L285.742 493.275ZM301.696 487.728L317.357 482.294L324.605 498.634C319.19 500.508 313.609 502.457 307.819 504.443L301.696 487.728ZM319.523 481.544L364.342 465.991L370.924 482.519C359.136 486.641 344.016 491.888 326.771 497.847L319.523 481.507L319.523 481.544ZM366.467 465.242L418.159 447.29L424.407 463.855C410.661 468.502 400.039 472.138 394.125 474.274C390.126 475.735 382.795 478.321 373.006 481.732L366.425 465.204L366.467 465.242ZM398.54 483.943C404.33 481.844 414.743 478.246 428.197 473.712L447.774 525.468L394.291 541.695L376.838 491.588C386.919 488.065 394.416 485.405 398.54 483.943ZM426.614 463.106L420.325 446.541L455.438 434.361L462.394 451.15C449.232 455.535 437.111 459.583 426.614 463.106ZM457.604 433.611L504.964 417.196L511.67 434.848C495.384 440.207 479.347 445.529 464.519 450.438L457.563 433.611L457.604 433.611ZM456.813 431.662L448.691 411.949L496.634 395.197L504.256 415.21L456.855 431.662L456.813 431.662ZM447.857 410L443.192 398.757L446.525 397.67L490.552 379.382L495.842 393.211L447.857 410ZM469.434 317.507L673.577 238.692L694.154 292.584L612.388 326.539L491.968 376.571L469.476 317.544L469.434 317.507ZM696.528 293.859L731.059 279.505L751.053 333.285L673.036 366.04L696.528 293.859ZM733.183 278.643L854.686 228.161C855.394 244.539 856.061 269.686 854.895 271.785C852.604 273.583 816.24 283.815 793.872 289.849C793.664 289.886 793.456 289.999 793.331 290.148L752.927 331.786L733.183 278.605L733.183 278.643ZM854.936 225.8L830.569 235.919L815.824 213.695C815.49 213.208 814.824 213.058 814.283 213.32L802.286 219.316L788.499 194.319L809.742 186.112C809.742 186.112 809.826 186.074 809.867 186.037C809.951 185.999 810.034 185.962 810.117 185.887C810.117 185.887 810.159 185.887 810.159 185.849L880.428 115.167L893.549 116.929L893.674 117.004L889.092 127.123C889.092 127.123 889.009 127.385 889.009 127.497L889.009 163.138L854.936 225.8ZM845.689 146.986L810.95 118.915C816.532 114.193 822.613 108.946 828.528 103.737L862.517 130.046L845.689 146.986ZM844.148 148.522L828.653 164.075L803.244 125.286C805.119 123.75 807.16 122.063 809.242 120.339L844.148 148.522ZM827.028 165.724L809.742 183.114L792.539 133.419C794.83 131.882 797.871 129.559 801.453 126.71L827.028 165.724ZM807.826 184.575L787.458 192.445L780.252 179.366C780.043 178.991 779.627 178.804 779.21 178.804C779.044 178.804 778.877 178.804 778.71 178.916C778.127 179.178 777.919 179.778 778.169 180.303L785.333 193.27L739.14 211.109L720.812 161.826C759.342 146.761 786.916 136.042 789.124 135.33C789.499 135.218 789.999 134.955 790.54 134.656L807.785 184.575L807.826 184.575ZM724.728 178.954L701.402 187.311L695.862 171.571C703.776 168.46 711.399 165.499 718.646 162.651L724.686 178.954L724.728 178.954ZM655.541 185.1L633.715 127.91L696.07 101.826L717.938 160.665C699.111 168.01 677.784 176.368 655.541 185.062L655.541 185.1ZM632.965 125.923L608.931 62.9242L675.368 46.022L695.362 99.8392L632.965 125.923ZM630.841 126.823L547.034 161.864L526.166 122.775L569.152 73.0431L606.64 63.5238L630.799 126.86L630.841 126.823ZM568.527 68.8831L566.403 58.5394L601.225 49.2076L605.182 59.5887L568.527 68.9206L568.527 68.8831ZM565.987 56.4781L560.447 29.3821L591.645 24.0978L600.475 47.2212L565.987 56.4781ZM521.876 120.377L464.519 147.061L459.854 105.611L506.589 101.563L521.876 120.377ZM462.311 148.072L412.41 171.271L378.213 177.567L387.335 99.2771L457.563 105.611L462.353 148.072L462.311 148.072ZM430.03 63.1866C429.697 63.4114 429.488 63.7487 429.53 64.1235C429.53 64.4233 429.738 64.6857 429.988 64.8356L429.53 100.964L387.543 97.1783L393.25 48.2331L430.196 50.8941L430.03 63.149L430.03 63.1866ZM385.252 96.9535L358.053 93.618L362.801 46.0594L390.959 48.0833L385.294 96.9535L385.252 96.9535ZM355.762 93.3557L322.522 89.3082L322.939 86.8346L323.272 84.6984L330.02 43.6984L360.469 45.9095L355.762 93.3557ZM385.002 99.0148L381.962 125.286L364.592 124.049C364.259 124.049 363.926 124.124 363.718 124.312L357.553 129.559L316.774 124.199L322.189 91.3319L385.044 99.0148L385.002 99.0148ZM318.732 200.653L324.98 208.748C316.233 213.957 307.86 218.904 300.446 223.214L304.611 197.917L318.732 200.615L318.732 200.653ZM315.4 219.466L327.229 244.389L290.824 256.344L299.196 228.873C304.195 226.025 309.651 222.839 315.358 219.466L315.4 219.466ZM329.229 245.963L343.182 241.391L358.761 236.256L339.35 301.429L319.773 356.97L289.783 352.023L268.248 330.361L290.033 258.855L329.145 246L329.229 245.963ZM267.207 332.385L279.369 344.64L275.412 367.839C275.329 368.326 275.621 368.813 276.162 368.963L311.109 380.993C311.109 380.993 311.234 380.993 311.276 380.993L301.196 409.551L242.215 403.217L250.42 358.957L267.207 332.385ZM275.204 408.876L269.414 438.296L233.842 448.564L241.84 405.278L275.204 408.839L275.204 408.876ZM270.331 440.245L286.159 446.99L230.843 464.755L233.426 450.888L270.372 440.207L270.331 440.245ZM244.714 462.506L242.839 479.446L228.052 479.895L230.427 467.116L244.755 462.506L244.714 462.506ZM242.589 481.544L239.965 505.118C239.965 505.305 239.965 505.53 240.09 505.68L243.256 511.189L220.222 522.245L227.678 481.957L242.631 481.507L242.589 481.544ZM215.223 536.336C197.645 542.37 180.109 548.404 163.24 554.213C165.322 542.183 170.113 514.112 175.194 484.842L227.886 467.94L215.223 536.374L215.223 536.336ZM219.68 524.868L244.256 513.063L250.587 524.156C239.715 527.904 228.719 531.689 217.681 535.474L219.638 524.868L219.68 524.868ZM473.016 585.918L450.69 526.854L534.288 501.482L473.016 585.918ZM449.94 524.906L430.321 473.075C452.981 465.429 483.679 455.235 515.419 444.779L535.621 498.896L449.94 524.906ZM599.226 439.907C591.562 445.529 561.405 464.492 561.113 464.68C560.988 464.755 560.905 464.867 560.822 464.98L537.454 497.21L517.627 444.105C560.822 429.863 605.641 415.172 634.506 405.728C623.01 417.421 604.433 436.122 599.268 439.945L599.226 439.907ZM513.836 434.211L492.635 378.595L612.139 328.975L641.338 392.386C613.846 401.381 562.821 418.058 513.795 434.211L513.836 434.211ZM663.83 385.378C663.164 385.378 662.497 385.49 661.873 385.678C661.498 385.79 654.708 388.001 643.545 391.637L614.263 328.075L693.696 295.095L664.289 385.415C664.289 385.415 663.955 385.378 663.83 385.378ZM668.662 387.739C668.121 386.989 667.371 386.39 666.496 385.978L672.078 368.813L752.844 334.896C752.844 334.896 752.927 334.821 752.969 334.821C753.052 334.784 753.094 334.746 753.177 334.671C753.177 334.671 753.177 334.671 753.219 334.634L794.747 291.835C809.159 287.937 854.52 275.607 856.561 273.209C858.602 270.848 857.435 240.229 856.811 226.887L891.05 163.925C891.05 163.925 891.175 163.625 891.175 163.475L891.175 127.797L895.59 118.053L962.152 148.934C947.99 214.519 933.536 277.743 928.454 287.525C926.955 290.373 925.83 292.922 924.831 295.133C918.708 308.812 916.833 312.972 844.398 336.695C843.44 336.995 842.648 337.52 841.982 338.194C841.274 338.944 772.796 410.9 745.471 430.613C733.85 435.785 722.603 441.369 711.815 447.328L668.662 387.739ZM988.935 258.78C989.477 259.08 990.185 258.892 990.518 258.405L995.891 250.01L1022.26 259.155L992.934 305.102L986.103 302.141L992.267 282.203C992.434 281.641 992.059 281.079 991.476 280.929C991.351 280.929 991.268 280.891 991.143 280.891C990.643 280.891 990.185 281.191 990.018 281.641L983.937 301.204L942.158 283.103C945.324 272.984 949.656 256.082 954.488 235.657L993.642 249.223L988.435 257.356C988.102 257.843 988.31 258.48 988.852 258.78L988.935 258.78ZM1108.61 106.285L1104.27 95.0796L1109.85 75.554L1147.55 85.3356L1129.85 135.855L1120.56 157.329C1113.06 154.481 1105.52 151.558 1097.94 148.672L1108.65 106.922C1108.69 106.735 1108.65 106.548 1108.65 106.36L1108.61 106.285ZM1320.62 137.429C1320.54 137.092 1320.41 136.717 1320.2 136.305L1353.61 140.315L1344.07 206.162L1300.46 199.229C1310.75 173.632 1321.83 143.8 1320.54 137.429L1320.62 137.429ZM1379.35 243.302L1382.77 315.258C1374.98 322.753 1365.9 331.223 1356.28 340.068L1356.28 247.125L1379.35 243.264L1379.35 243.302ZM1356.28 245.026L1356.28 233.333C1362.44 232.883 1370.19 231.909 1378.77 230.635L1379.27 241.203L1356.28 245.026ZM1381.06 230.297C1392.51 228.536 1405.3 226.25 1417.92 223.851C1415.97 254.395 1414.38 278.493 1406.84 289.886C1404.18 293.934 1396.06 302.403 1384.98 313.122L1381.06 230.297ZM1349.36 223.214C1347.95 223.214 1346.11 223.102 1344.03 222.877L1347.36 199.903L1399.97 203.801C1399.97 203.801 1400.22 203.801 1400.3 203.801L1419.51 199.978C1419.17 204.438 1418.88 208.823 1418.59 213.058C1391.06 218.38 1362.36 223.214 1349.32 223.214L1349.36 223.214ZM983.02 367.314L982.687 372.935L930.287 368.551L930.62 347.676L950.947 349.812L983.853 353.935L983.145 365.702C982.854 365.89 982.646 366.152 982.646 366.489C982.646 366.827 982.77 367.127 983.062 367.314L983.02 367.314ZM822.738 382.829L896.09 364.878L898.922 387.739C890.133 388.863 881.303 390.287 872.431 391.974C856.769 394.972 841.649 398.383 827.07 402.243L822.78 382.829L822.738 382.829ZM824.821 402.805C808.493 407.152 792.831 412.062 777.794 417.533C790.665 405.728 804.952 391.712 817.49 379.119L820.322 382.492L824.821 402.767L824.821 402.805ZM898.381 364.578L913.709 364.578L916.833 369.075C917.041 369.338 917.333 369.525 917.708 369.563L927.955 370.425L927.746 384.928C918.957 385.453 910.127 386.315 901.255 387.402L898.422 364.541L898.381 364.578ZM918.499 367.539L915.334 362.967C915.125 362.667 914.75 362.479 914.334 362.479L897.089 362.479C897.089 362.479 897.006 362.479 896.964 362.479C896.964 362.479 896.964 362.479 896.923 362.479C896.923 362.479 896.84 362.479 896.798 362.479L821.863 380.806L819.073 377.47C834.068 362.404 846.231 349.7 849.813 345.914C899.714 329.537 917.833 321.704 926.788 312.822L928.788 315.67L927.996 368.251L918.499 367.464L918.499 367.539ZM928.371 311.211C929.912 309.449 931.162 307.613 932.287 305.664L964.776 310.349L963.902 317.282L960.069 336.545L950.614 347.638L930.662 345.577L931.12 315.483C931.12 315.296 931.079 315.071 930.954 314.921L928.371 311.248L928.371 311.211ZM978.564 318.631L966.276 316.607L968.775 296.932L983.312 303.228L978.522 318.631L978.564 318.631ZM985.478 304.165L992.309 307.126L994.059 321.18L980.854 319.006L985.478 304.165ZM965.026 308.287L933.37 303.715C934.119 302.216 934.869 300.679 935.619 298.993C936.619 296.782 937.618 294.496 938.993 291.91C939.701 290.523 940.617 288.2 941.617 285.126L966.651 295.995L965.068 308.325L965.026 308.287ZM930.287 370.612L982.604 374.997L981.979 385.265C964.901 383.991 947.615 383.841 930.079 384.816L930.287 370.612ZM953.238 347.938L962.069 337.595C962.069 337.595 962.277 337.295 962.277 337.145L965.984 318.631L979.147 320.805L995.058 323.428L995.35 323.428L1039.71 324.927L1043.88 357.045L1012.39 355.921C1012.39 355.921 1012.39 355.921 1012.34 355.921C1012.05 355.921 1011.76 356.033 1011.55 356.221C1011.34 356.408 1011.18 356.67 1011.18 356.97L1011.18 366.864L985.478 365.515L986.228 352.998C986.228 352.473 985.811 351.986 985.228 351.911L953.238 347.901L953.238 347.938ZM1322.04 229.922L1316.66 275.232L1293.59 271.522C1293.59 271.522 1293.46 271.522 1293.38 271.522C1292.88 271.522 1292.42 271.822 1292.26 272.272L1279.22 314.546L1251.43 304.952L1260.14 287.338L1290.38 223.252C1301.54 225.8 1312.46 228.086 1322 229.885L1322.04 229.922ZM1294.71 213.545C1296.3 209.647 1298 205.487 1299.75 201.177L1343.86 208.186L1341.78 222.577C1330.83 221.228 1313.37 217.742 1294.71 213.545ZM1294.88 395.197L1270.64 377.32L1329.66 357.195C1329.66 357.195 1329.74 357.195 1329.79 357.158L1342.11 352.96C1325.7 367.839 1308.83 382.867 1294.84 395.197L1294.88 395.197ZM1341.49 368.326L1332.49 416.034L1323.54 416.259L1324.54 383.504C1329.99 378.669 1335.66 373.573 1341.45 368.326L1341.49 368.326ZM1322.2 385.603L1321.25 416.297L1286.42 417.121C1292.63 411.724 1306.08 399.919 1322.16 385.603L1322.2 385.603ZM1261.76 257.431L1250.44 281.454L1218.78 270.136L1230.61 245.213L1261.81 257.431L1261.76 257.431ZM1231.48 243.302L1237.65 230.297L1251.31 235.019L1243.6 248.062L1231.44 243.302L1231.48 243.302ZM1245.77 248.886L1253.52 235.731L1269.43 241.203L1262.68 255.482L1245.77 248.849L1245.77 248.886ZM1238.56 228.348L1246.1 212.458C1256.23 215.082 1267.64 217.892 1279.13 220.591L1270.3 239.292L1238.56 228.348ZM1236.4 227.599L1206.82 217.405L1213.03 203.201C1213.57 203.389 1214.11 203.576 1214.53 203.688C1220.24 205.525 1230.9 208.486 1243.85 211.859L1236.4 227.561L1236.4 227.599ZM1235.48 229.51L1216.61 269.349L1191.33 252.896L1205.99 219.316L1235.52 229.51L1235.48 229.51ZM1189.29 251.809L1182.96 248.886L1197.41 216.206L1201.16 217.705L1203.78 218.604L1189.29 251.847L1189.29 251.809ZM1180.87 247.912L1133.14 225.763L1139.6 209.947L1189.16 229.173L1180.87 247.912ZM1171.79 246.038L1151.51 288.275L1114.27 272.047L1132.35 227.711L1171.84 246.038L1171.79 246.038ZM1150.59 290.186L1130.31 332.46L1095.07 319.156L1113.48 274.033L1150.63 290.223L1150.59 290.186ZM1173.88 246.975L1181 250.273C1181 250.273 1181 250.273 1181.04 250.273L1189.16 254.058L1215.32 271.072C1215.32 271.072 1215.49 271.147 1215.57 271.185L1178.04 350.449L1132.39 333.21L1173.83 246.937L1173.88 246.975ZM1217.82 272.009L1249.48 283.328L1210.28 362.667L1180.21 351.311L1217.78 272.009L1217.82 272.009ZM1224.28 360.006L1266.51 377.32L1246.85 399.17L1239.61 406.178L1206.2 396.509L1224.24 359.968L1224.28 360.006ZM1225.23 358.095L1250.6 306.788L1279.68 316.832C1279.97 316.945 1280.3 316.907 1280.59 316.795C1280.88 316.645 1281.09 316.42 1281.18 316.158L1294.25 273.696L1316.46 277.294L1314.46 294.121L1297.46 292.097C1297.46 292.097 1297.38 292.097 1297.3 292.097C1296.71 292.097 1296.21 292.472 1296.13 292.997C1296.05 293.559 1296.5 294.084 1297.13 294.158L1304.38 295.02L1295.17 308.887C1294.96 309.187 1294.96 309.562 1295.13 309.861L1298.17 315.745L1291.34 323.99C1291.09 324.328 1291.05 324.74 1291.26 325.077L1299.63 339.618L1285.3 346.102L1280.55 335.983C1280.38 335.646 1280.05 335.421 1279.63 335.346C1279.22 335.308 1278.84 335.421 1278.55 335.721L1260.18 356.258C1259.89 356.595 1259.85 357.083 1260.1 357.457L1268.43 369.225C1268.76 369.712 1269.47 369.862 1270.01 369.563L1290.42 358.507L1293.3 367.314L1268.35 375.821L1225.15 358.132L1225.23 358.095ZM1289.59 356.558L1269.85 367.239L1262.56 356.97L1279.18 338.381L1283.63 347.901C1283.63 347.901 1283.63 347.938 1283.67 347.976C1283.67 347.976 1283.67 348.013 1283.67 348.051L1289.55 356.558L1289.59 356.558ZM1328.24 355.396L1295.55 366.527L1292.3 356.595C1292.3 356.595 1292.26 356.52 1292.26 356.483C1292.26 356.446 1292.26 356.371 1292.17 356.333L1286.38 347.901L1301.75 340.967C1302.04 340.855 1302.25 340.63 1302.34 340.368C1302.42 340.105 1302.42 339.806 1302.25 339.581L1293.67 324.702L1300.5 316.457C1300.75 316.158 1300.79 315.745 1300.63 315.408L1297.55 309.449L1306.96 295.283L1331.2 298.168L1328.24 355.396ZM1283.47 210.847C1272.84 208.373 1262.18 205.75 1252.52 203.276L1259.31 189.597L1288.26 199.004C1286.67 202.939 1285.05 206.912 1283.42 210.847L1283.47 210.847ZM1250.27 202.677C1236.56 199.154 1224.98 195.931 1218.45 193.832C1216.11 193.082 1211.57 191.471 1205.45 189.222L1213.91 174.831L1257.18 188.885L1250.31 202.677L1250.27 202.677ZM1210.86 202.377L1204.66 216.581L1202.08 215.681L1146.26 193.645L1151.72 180.303C1178.67 190.534 1200.91 198.891 1210.86 202.377ZM1195.33 215.269L1190.08 227.149L1140.43 207.923L1145.47 195.593L1195.33 215.269ZM1138.3 207.099L1091.99 189.147L1096.73 176.33L1143.34 194.731L1138.3 207.099ZM1137.51 209.048L1131.14 224.713L1086.49 203.988L1091.24 191.096L1137.51 209.01L1137.51 209.048ZM1130.31 226.662L1112.23 271.035L1074.57 254.62L1096.57 210.997L1130.31 226.662ZM1111.4 273.021L1092.53 319.306C1092.32 319.83 1092.61 320.392 1093.15 320.617L1177.17 352.361L1164.84 378.37L1149.09 369.712L1147.01 363.079C1146.93 362.779 1146.68 362.517 1146.34 362.404L1041.79 323.091L1039.63 306.376L1046.54 284.639L1065.95 291.722C1066.54 291.947 1067.2 291.685 1067.45 291.16C1067.7 290.636 1067.41 290.036 1066.83 289.811L1047.21 282.653L1051.54 269.049L1064.33 272.722C1064.87 272.871 1065.49 272.646 1065.74 272.159L1073.62 256.569L1111.44 273.059L1111.4 273.021ZM1037.42 305.964C1037.42 305.964 1037.38 306.226 1037.42 306.376L1039.54 322.716L1016.88 321.967L1013.64 301.092L1033.5 284.002C1033.5 284.002 1033.75 283.74 1033.8 283.552L1040.04 265.114L1049.37 268.337L1037.42 305.964ZM985.395 367.464L1012.3 368.888C1012.64 368.888 1012.93 368.813 1013.18 368.588C1013.43 368.401 1013.55 368.101 1013.55 367.839L1013.55 357.907L1043.83 358.994L1040.92 372.411L1036.42 393.173C1019.34 389.313 1001.93 386.69 984.312 385.265L985.395 367.464ZM1043 373.835C1058.2 376.496 1081.32 380.768 1085.86 382.267L1075.03 404.079C1063.08 399.994 1050.96 396.546 1038.71 393.698L1043 373.835ZM1087.82 383.467C1091.44 385.753 1102.44 391.074 1134.31 405.84C1141.68 409.251 1149.05 412.661 1155.76 415.734L1143.64 433.911C1134.85 429.751 1125.35 425.254 1115.06 420.382C1102.65 414.498 1089.99 409.326 1077.2 404.866L1087.82 383.504L1087.82 383.467ZM1157.84 416.671C1167.05 420.869 1174.71 424.392 1178.92 426.303L1169.21 445.979C1162.05 442.606 1154.22 438.895 1145.76 434.885L1157.88 416.671L1157.84 416.671ZM1088.74 381.63L1093.36 372.336L1103.65 370.949L1134.39 377.845L1187.16 409.626L1179.87 424.429C1144.39 408.276 1094.48 385.191 1088.78 381.63L1088.74 381.63ZM1135.51 376.009C1135.51 376.009 1135.26 375.896 1135.14 375.859L1103.98 368.85C1103.98 368.85 1103.82 368.85 1103.69 368.85C1103.65 368.85 1103.57 368.85 1103.52 368.85L1092.4 370.35C1092.03 370.387 1091.69 370.612 1091.53 370.949L1086.82 380.468C1084.9 379.794 1080.49 378.67 1070.16 376.646L1073.12 365.103C1073.24 364.541 1072.87 363.978 1072.24 363.866C1072.16 363.866 1072.08 363.866 1071.99 363.866C1071.45 363.866 1070.99 364.203 1070.87 364.691L1067.87 376.271C1061.75 375.109 1053.79 373.648 1043.46 371.849L1046.38 358.282C1046.38 358.282 1046.38 358.207 1046.38 358.169C1046.38 358.169 1046.38 358.169 1046.38 358.095C1046.38 358.095 1046.38 358.057 1046.38 358.02C1046.38 358.02 1046.38 357.945 1046.38 357.907L1042.17 325.452L1144.97 364.128L1147.05 370.649C1147.13 370.912 1147.3 371.099 1147.55 371.249L1164.8 380.768L1194.45 394.522L1187.96 407.639L1135.35 375.934L1135.51 376.009ZM1166.96 379.419L1179.42 353.185L1209.45 364.541L1195.54 392.723L1166.96 379.457L1166.96 379.419ZM1205.37 398.42L1271.8 417.646L1262.97 433.574L1198.45 412.511L1205.41 398.457L1205.37 398.42ZM1242.15 406.852L1248.1 401.081L1274.26 413.373C1274.09 413.561 1273.97 413.786 1273.84 414.01L1272.89 415.734L1242.19 406.852L1242.15 406.852ZM1249.64 399.469L1268.64 378.37L1293.3 396.546C1286.63 402.393 1280.72 407.602 1275.89 411.799L1249.64 399.469ZM1283.72 419.482C1283.72 419.482 1283.92 419.295 1284.05 419.182L1333.58 418.021C1334.12 418.021 1334.58 417.646 1334.7 417.159L1344.41 365.702C1347.61 362.817 1350.82 359.893 1354.03 356.97L1354.03 433.349L1275.05 435.11L1283.72 419.52L1283.72 419.482ZM1346.15 349.287L1330.66 354.572L1333.62 297.269C1333.62 296.744 1333.2 296.257 1332.62 296.182L1316.83 294.308L1324.41 230.222C1335.32 232.209 1344.28 233.483 1349.45 233.483C1350.82 233.483 1352.36 233.445 1354.03 233.333L1354.03 342.054C1351.44 344.453 1348.78 346.851 1346.11 349.25L1346.15 349.287ZM1400.1 201.59L1347.74 197.692L1350.36 179.591L1382.14 177.342L1422.01 173.444C1421.09 181.764 1420.38 189.859 1419.8 197.655L1400.1 201.552L1400.1 201.59ZM1289.09 197.055L1260.31 187.686L1283.3 141.476C1283.55 140.989 1283.34 140.464 1282.88 140.165L1246.6 119.102L1260.14 96.054C1284.13 115.167 1306.46 134.281 1309.33 139.303C1309.12 144.662 1299.88 170.184 1289.13 197.092L1289.09 197.055ZM1280.76 141.439L1258.1 186.974L1214.95 172.957L1245.48 120.939L1280.76 141.439ZM1203.24 188.435C1191.54 184.125 1174.63 177.754 1155.3 170.409L1159.21 162.426C1159.46 161.901 1159.21 161.302 1158.63 161.039C1158.46 160.964 1158.3 160.964 1158.17 160.964C1157.71 160.964 1157.3 161.189 1157.13 161.602L1153.17 169.584C1143.47 165.874 1133.18 161.976 1122.68 157.966L1131.56 137.466L1146.01 143.5C1146.3 143.613 1146.63 143.613 1146.93 143.5C1147.22 143.388 1147.47 143.2 1147.59 142.938L1159.92 117.266L1227.86 146.536L1203.28 188.435L1203.24 188.435ZM1095.82 147.66C1072.08 138.553 1048.71 129.559 1029.51 122.138L1031.59 106.623L1100.4 129.709L1095.82 147.623L1095.82 147.66ZM1149.55 179.516L1144.14 192.82L1068.16 162.838L1071.99 149.871C1097.86 159.803 1125.47 170.371 1149.55 179.553L1149.55 179.516ZM1094.57 175.543L1084.36 203.089L1059.62 191.621L1067.54 164.862L1094.53 175.543L1094.57 175.543ZM1094.48 210.135L1064.04 270.51L1051.12 266.8L1025.51 257.918L1058.79 193.607L1094.48 210.172L1094.48 210.135ZM1037.88 264.402L1031.67 282.728L1011.59 300.005C1011.34 300.23 1011.18 300.567 1011.26 300.904L1014.51 321.967L996.516 321.367L994.683 306.563L1024.51 259.792L1037.92 264.439L1037.88 264.402ZM711.857 459.508C712.398 459.358 712.94 459.171 713.44 458.871C713.898 458.608 714.231 458.309 714.564 457.971C725.936 451.563 737.765 445.566 750.095 440.057C750.594 439.907 751.053 439.72 751.511 439.42C788.249 423.117 829.236 410.712 874.846 402.018C958.445 386.09 1037.42 395.384 1109.61 429.639C1189.29 467.416 1222.49 483.043 1233.36 488.14C1223.03 516.248 1207.82 570.065 1193.33 624.482C1193.33 624.52 1193.33 624.557 1193.29 624.595C1193.29 624.595 1193.29 624.67 1193.29 624.707C1191.83 630.141 1190.41 635.576 1188.95 641.01C1160.13 637.112 969.233 611.44 965.234 610.691C960.861 609.866 898.131 602.633 895.465 602.333C895.34 602.333 895.215 602.333 895.09 602.333L859.018 608.217L850.563 556.536C850.479 556.124 850.188 555.787 849.73 555.674L816.282 547.167L782.751 538.622L734.849 510.027L693.404 470.714C699.361 466.853 705.484 463.106 711.732 459.508L711.857 459.508ZM1221.53 625.382C1216.82 624.22 1210.61 622.871 1205.99 621.896C1209.53 608.667 1213.11 595.513 1216.61 582.808L1228.69 587.905L1221.53 625.382ZM1223.11 636.662C1223.94 636.962 1227.9 638.874 1232.07 640.897C1246.81 648.018 1275.3 661.735 1298.13 670.055L1290.71 688.194L1267.76 679.386C1267.43 679.237 1267.05 679.274 1266.72 679.461L1258.81 683.696L1193.91 667.581C1196.95 655.926 1200.08 643.971 1203.28 632.015C1211.66 633.814 1221.11 635.95 1223.11 636.662ZM1217.2 580.746C1224.57 554.25 1231.65 529.853 1237.77 510.889L1228.98 585.768L1217.2 580.784L1217.2 580.746ZM1110.44 796.615L1078.07 787.696L1079.99 758.238L1114.73 762.698C1115.35 762.773 1115.94 762.398 1116.02 761.799C1116.1 761.237 1115.69 760.712 1115.02 760.637L1080.11 756.177L1082.49 719.899L1135.76 725.146L1131.89 745.721L1125.52 779.413L1117.23 779.413C1116.73 779.413 1116.27 779.713 1116.1 780.163L1110.44 796.69L1110.44 796.615ZM1110.81 798.901L1131.31 806.434L1128.64 813.218C1121.31 810.632 1111.52 807.146 1100.27 803.174L1101.57 796.353L1110.77 798.901L1110.81 798.901ZM839.233 762.998C875.846 760.187 942.117 755.428 948.823 756.027C951.447 756.252 971.607 762.923 999.515 772.517L996.766 787.208L934.536 774.016C934.536 774.016 934.286 774.016 934.203 774.016L845.689 779.376L839.233 763.036L839.233 762.998ZM853.895 803.361L832.693 805.535L818.989 770.119L836.734 763.185L836.817 763.185L843.773 780.762L853.853 803.324L853.895 803.361ZM562.987 657.013L570.86 663.271C571.318 663.646 572.068 663.609 572.484 663.196C572.901 662.747 572.859 662.11 572.401 661.735L565.112 655.963L568.069 648.73C568.277 648.243 568.069 647.718 567.528 647.456L557.073 642.172L598.518 588.242C609.723 599.448 624.468 614.214 638.463 628.043L575.983 675.901C575.733 676.089 575.608 676.351 575.567 676.613C575.567 676.876 575.65 677.175 575.858 677.363L591.645 693.928L576.233 702.397L547.159 711.654C546.951 711.729 546.784 711.842 546.618 711.992L506.672 758.238L465.56 757.377L484.721 745.871C484.721 745.871 485.012 745.646 485.096 745.496L548.534 639.661L548.534 639.586L554.698 643.371C554.698 643.371 554.698 643.371 554.74 643.371L565.445 648.768L562.529 655.851C562.363 656.263 562.529 656.713 562.863 656.975L562.987 657.013ZM788.916 588.242L781.834 577.486L801.537 545.555L814.657 548.891L809.492 565.793C809.451 565.98 809.451 566.205 809.492 566.43L812.491 574.113C812.491 574.113 812.658 574.375 812.741 574.488L819.323 580.447L809.076 597.424C808.868 597.724 808.909 598.136 809.076 598.436L814.699 607.393L806.16 616.462L778.336 600.422L788.749 589.479C789.082 589.141 789.124 588.654 788.874 588.279L788.916 588.242ZM817.198 606.981L811.492 597.911L821.822 580.784C822.072 580.372 821.988 579.885 821.613 579.547L814.616 573.176L811.825 566.018L816.907 549.453L848.48 557.473L856.852 608.517L809.409 616.275L817.032 608.18C817.365 607.843 817.407 607.393 817.157 606.981L817.198 606.981ZM783.084 605.594L752.469 632.952C752.011 633.364 752.011 634.002 752.469 634.414C752.927 634.826 753.635 634.826 754.093 634.414L785.042 606.718L805.785 618.673C805.785 618.673 805.868 618.673 805.952 618.711C806.035 618.711 806.077 618.748 806.16 618.786C806.243 618.786 806.285 618.786 806.368 618.786C806.452 618.786 806.535 618.786 806.577 618.786C806.577 618.786 806.577 618.786 806.618 618.786L856.894 610.578L854.436 665.333L827.445 660.573C826.987 660.498 826.487 660.685 826.237 661.06L814.824 677.962L798.329 688.119L780.918 668.855C780.585 668.481 780.043 668.368 779.585 668.556L762.382 674.889L741.139 646.407C741.098 646.369 741.056 646.294 741.014 646.257L726.56 633.552L741.097 618.411C741.472 617.999 741.472 617.399 741.056 617.024L708.649 586.705C708.441 586.518 708.15 586.406 707.816 586.368C707.483 586.368 707.192 586.481 706.983 586.668L690.072 601.471L661.664 576.512L693.321 545.256L705.9 560.921C705.9 560.921 706.109 561.108 706.234 561.183L783.084 605.481L783.084 605.594ZM1054.58 634.114L1057.83 641.235C1058 641.572 1058.33 641.834 1058.75 641.872L1085.15 644.87L1083.57 668.855L1043.79 663.459C1043.79 663.459 1043.79 663.421 1043.79 663.384L1047.92 624.07C1050.37 624.407 1052.87 624.745 1055.37 625.082L1054.5 633.627C1054.5 633.627 1054.5 633.964 1054.58 634.114ZM1116.64 648.43L1116.64 672.266L1085.86 669.118L1087.45 645.132L1116.64 648.468L1116.64 648.43ZM1087.57 643.034L1088.45 629.542C1098.03 630.854 1107.52 632.128 1116.64 633.364L1116.64 646.332L1087.57 643.034ZM982.937 726.158C982.771 725.933 982.479 725.783 982.187 725.746L967.4 723.61C967.4 723.61 967.275 723.61 967.234 723.61C966.692 723.61 966.192 723.984 966.109 724.472C966.026 725.034 966.442 725.558 967.067 725.671L980.688 727.657L974.606 759.25L966.567 757.039C960.528 755.09 955.779 753.591 952.738 752.767L957.445 703.747L1080.28 719.712L1075.87 787.171L976.814 759.887L983.145 726.983C983.187 726.72 983.145 726.42 982.937 726.195L982.937 726.158ZM950.448 752.13C949.948 752.017 949.531 751.942 949.281 751.905C948.823 751.867 948.156 751.83 947.282 751.83C941.867 751.83 928.704 752.542 913.251 753.554L914.501 699.624L954.946 703.372L955.071 703.372L950.406 752.092L950.448 752.13ZM957.612 701.648L962.11 654.539L1083.41 670.954L1080.36 717.613L957.612 701.648ZM1085.74 671.216L1109.15 673.615L1105.06 720.087L1082.7 717.876L1085.74 671.216ZM1085.28 642.809L1059.7 639.923L1056.83 633.627L1057.66 625.457C1067.04 626.731 1076.62 628.005 1086.15 629.317L1085.28 642.846L1085.28 642.809ZM1041.54 663.196L1010.97 659.074L1021.01 620.472C1028.8 621.522 1037.09 622.646 1045.67 623.808L1041.54 663.196ZM1008.68 658.699L962.36 652.44L966.151 612.902C971.441 613.689 991.976 616.5 1018.72 620.098L1008.68 658.662L1008.68 658.699ZM955.321 701.348C955.321 701.348 955.321 701.348 955.279 701.348L855.103 692.054L856.727 666.794L859.268 610.354L895.423 604.432C899.047 604.844 954.946 611.29 963.818 612.602L955.321 701.386L955.321 701.348ZM611.639 680.736L593.561 692.803L578.358 676.838L595.102 664.021L611.639 680.773L611.639 680.736ZM596.893 662.634L618.303 646.219L633.048 666.419L613.513 679.461L596.893 662.597L596.893 662.634ZM594.019 695.089C594.019 695.089 594.019 695.089 594.061 695.089L634.298 668.256L676.368 726.008L599.559 753.741L578.108 703.859L593.978 695.127L594.019 695.089ZM635.589 666.12L620.053 644.87L640.005 629.579C648.21 637.712 656.124 645.507 662.789 651.991C675.452 664.283 688.281 674.439 699.569 683.397C714.023 694.827 726.477 704.684 730.601 713.228C730.684 713.378 730.767 713.528 730.851 713.716L684.116 732.791L635.548 666.157L635.589 666.12ZM719.354 661.285L739.89 648.58L760.466 676.163L734.683 699.587C734.016 698.837 733.35 698.088 732.6 697.301L719.313 661.248L719.354 661.285ZM724.894 632.203L691.738 603.045L707.775 588.991L738.64 617.886L724.894 632.203ZM659.998 575.2L633.923 553.313L666.455 522.395C666.455 522.395 666.538 522.32 666.538 522.245L691.78 543.757L659.957 575.162L659.998 575.2ZM659.29 577.449L738.39 646.969L717.313 660.011C716.897 660.273 716.689 660.76 716.855 661.21L728.768 693.553C722.853 687.969 715.481 682.16 707.233 675.601C696.112 666.832 683.532 656.863 671.286 644.945C652.501 626.656 623.885 598.098 605.682 579.885L632.299 554.812L659.249 577.449L659.29 577.449ZM548.242 713.528L576.025 704.684L597.435 754.453L554.657 770.606L549.492 759.775C549.325 759.4 548.909 759.138 548.45 759.138L509.504 758.313L548.2 713.528L548.242 713.528ZM599.393 756.027L677.701 727.732L682.741 734.665C683.033 735.078 683.657 735.265 684.199 735.04L731.809 715.627C734.599 721.436 740.514 733.766 748.054 749.544C699.069 769.444 624.968 799.201 577.358 818.277L555.615 772.555L599.393 756.027ZM746.554 720.087L766.381 713.116C766.964 712.891 767.256 712.291 767.048 711.767C766.881 711.355 766.423 711.092 765.964 711.092C765.84 711.092 765.673 711.092 765.548 711.167L745.679 718.175C743.597 713.828 742.097 710.717 741.306 709.068C740.056 706.445 738.307 703.859 736.182 701.236L762.716 677.138L779.752 670.842L797.288 690.255C797.663 690.667 798.329 690.78 798.829 690.442L816.448 679.611C816.448 679.611 816.698 679.424 816.782 679.312L827.903 662.859L854.436 667.544L852.812 692.391C847.522 695.876 801.037 726.42 797.954 728.781C796.746 729.568 781.418 735.94 758.675 745.196C753.885 735.153 749.72 726.495 746.637 720.049L746.554 720.087ZM854.936 694.115L912.21 699.437L910.918 753.741C890.217 755.09 866.016 756.852 850.812 758.014L854.936 694.115ZM1001.72 773.304C1029.46 782.824 1064.41 795.041 1097.32 806.659L1095.73 815.054L999.015 787.808L1001.72 773.304ZM1002.47 769.107L1099.4 795.828L1098.15 802.499C1069.66 792.455 1032.59 779.451 1002.47 769.144L1002.47 769.107ZM1134.01 747.108L1160.76 750.93C1159.59 755.578 1158.51 759.887 1157.51 763.785C1154.72 774.878 1152.38 784.098 1151.43 787.808L1127.85 779.788L1134.06 747.07L1134.01 747.108ZM1134.39 745.046L1138.1 725.408L1166.46 728.182C1164.59 735.602 1162.84 742.536 1161.21 748.869L1134.35 745.046L1134.39 745.046ZM1107.36 720.312L1111.44 673.877L1135.93 676.388L1133.72 699.999C1133.72 700.299 1133.81 700.561 1134.01 700.786C1134.22 701.011 1134.56 701.123 1134.85 701.123L1140.1 701.123C1140.64 701.123 1141.14 700.748 1141.22 700.261L1145.97 677.4L1178.62 680.736C1174.42 696.963 1170.5 712.366 1166.96 726.158L1107.31 720.312L1107.36 720.312ZM1118.98 672.528L1118.98 633.702C1133.85 635.688 1147.63 637.562 1159.17 639.136C1154.76 664.545 1153.3 673.053 1152.92 676.014L1118.98 672.528ZM1143.68 677.138L1139.14 698.987L1136.1 698.987L1138.22 676.576L1143.68 677.138ZM1182 713.94L1253.98 728.669L1246.64 739.875L1219.4 734.478L1178.58 727.582C1179.71 723.197 1180.87 718.663 1182.04 713.978L1182 713.94ZM1179.17 678.674L1155.17 676.238C1155.88 671.741 1159.17 652.59 1161.42 639.436C1173.79 641.122 1183.37 642.396 1188.45 643.071C1185.25 655.139 1182.17 667.131 1179.17 678.712L1179.17 678.674ZM691.613 471.988L732.517 510.777L699.069 536.486L676.16 514.262L679.284 500.62C679.367 500.32 679.284 499.983 679.034 499.758L668.412 488.44C675.91 482.706 683.616 477.235 691.613 471.988ZM666.663 489.789L676.91 500.733L673.786 514.412C673.702 514.749 673.786 515.086 674.077 515.349L698.153 538.697C698.569 539.109 699.277 539.147 699.736 538.772L734.266 512.201L781.709 540.533C781.709 540.533 781.918 540.646 782.043 540.683L799.246 545.068L779.502 577.111C779.294 577.449 779.294 577.823 779.502 578.161L786.5 588.804L776.42 599.41L707.691 559.759L695.987 545.256L731.017 550.24L736.89 558.598C736.89 558.598 737.182 558.897 737.349 558.972L755.884 567.105C756.343 567.33 756.926 567.217 757.259 566.88L769.922 554.175C770.338 553.763 770.296 553.126 769.88 552.751L755.26 539.971L747.012 532.776C746.554 532.363 745.804 532.401 745.388 532.776C744.93 533.188 744.971 533.863 745.388 534.237L752.76 540.683L744.93 547.579C744.471 547.991 744.471 548.629 744.93 549.041C745.388 549.453 746.096 549.453 746.554 549.041L754.426 542.108L760.883 547.729L750.553 555.562C750.053 555.937 750.011 556.574 750.428 557.023C750.844 557.473 751.552 557.511 752.052 557.136L762.549 549.153L767.464 553.463L756.093 564.856L738.64 557.211L732.642 548.704C732.475 548.441 732.184 548.291 731.85 548.216L693.904 542.82L648.919 504.443C654.667 499.421 660.54 494.549 666.579 489.864L666.663 489.789ZM626.592 525.768C633.257 518.834 640.171 512.238 647.336 505.83L664.955 520.858C664.955 520.858 664.83 520.895 664.788 520.97L631.424 552.639L604.141 578.311C598.726 572.876 594.352 568.491 591.603 565.756C604.558 549.94 616.429 536.261 626.551 525.768L626.592 525.768ZM584.689 574.338C587.688 577.336 591.895 581.571 596.977 586.668L555.157 641.085L540.161 631.865C555.656 611.253 570.735 591.69 584.731 574.338L584.689 574.338ZM538.828 633.589L546.784 638.461C546.784 638.461 546.618 638.574 546.534 638.686L523.917 676.388L512.337 669.305C521.209 657.2 530.081 645.207 538.828 633.552L538.828 633.589ZM511.046 671.104L522.834 678.262L483.221 744.334L461.936 757.114L453.481 751.305C471.725 725.446 491.385 697.975 511.046 671.104ZM446.983 850.582C446.65 850.732 446.4 851.07 446.358 851.407L445.525 858.453L429.155 859.577L404.746 821.35C409.994 813.742 415.618 805.61 421.574 797.065L440.152 809.695L460.353 844.586L447.024 850.582L446.983 850.582ZM504.006 860.589L497.592 850.957C497.3 850.545 496.759 850.357 496.217 850.507L470.767 858.153L462.894 844.586L442.026 808.533C442.026 808.533 441.818 808.271 441.693 808.196L422.782 795.341C431.946 782.149 441.859 767.983 452.231 753.292L461.187 759.438C461.353 759.55 461.561 759.625 461.77 759.625C461.77 759.625 461.77 759.625 461.811 759.625L505.922 760.562L502.382 788.07C502.382 788.07 502.382 788.445 502.465 788.595L531.747 849.158L504.006 860.589ZM553.699 840.126C553.699 840.126 553.699 840.126 553.657 840.126L533.913 848.259L504.798 787.995L508.338 760.562L547.784 761.387L575.733 820.188L579.899 831.431L553.782 840.089L553.699 840.126ZM590.895 854.93L578.149 820.413C596.06 813.255 689.364 775.853 748.928 751.643C753.968 762.211 759.717 774.166 765.673 786.684L590.854 854.967L590.895 854.93ZM759.508 747.333C782.501 737.963 798.454 731.33 799.371 730.618C802.203 728.444 843.065 701.536 852.604 695.314L848.522 758.388C841.565 758.913 836.9 759.25 836.026 759.325C835.776 759.325 835.526 759.4 835.318 759.475L776.336 782.524C770.338 769.969 764.59 757.939 759.508 747.333ZM778.169 786.346L816.907 771.206L830.527 806.397L795.08 821.687C789.499 810.032 783.751 798.002 778.169 786.346ZM812.7 858.752C807.618 848.071 801.87 836.079 795.913 823.599L831.235 808.345L848.022 849.196L812.7 858.715L812.7 858.752ZM850.229 848.633L833.485 807.821L894.424 801.525L904.087 834.092L850.229 848.633ZM951.989 821.163L906.295 833.493L896.756 801.3L916.583 799.239L952.488 806.097L951.989 821.125L951.989 821.163ZM954.321 821.088L954.863 805.31C954.863 804.823 954.488 804.373 953.946 804.26L916.875 797.177C916.875 797.177 916.708 797.177 916.625 797.177C916.583 797.177 916.542 797.177 916.5 797.177L856.227 803.399L846.481 781.662L934.119 776.34L996.308 789.532L989.268 827.234L954.28 821.088L954.321 821.088ZM1050.12 837.915L991.559 827.646L998.599 790.094L1095.32 817.34L1091.69 836.378L1050.17 837.915L1050.12 837.915ZM1120.06 835.329L1094.03 836.303L1097.61 817.49C1097.61 817.49 1097.94 817.19 1097.98 817.003C1098.11 816.703 1097.98 816.403 1097.86 816.141L1099.48 807.633C1108.94 810.969 1118.23 814.267 1127.1 817.415L1120.06 835.329ZM1132.6 834.879L1122.56 835.254L1129.27 818.202C1131.68 819.064 1134.1 819.926 1136.47 820.75L1132.64 834.879L1132.6 834.879ZM1137.76 816.74C1135.89 816.066 1133.56 815.241 1130.77 814.267L1133.43 807.521L1141.01 810.294C1139.89 812.58 1138.76 814.754 1137.76 816.74ZM1141.93 808.383L1112.56 797.59L1118.02 781.737L1126.22 781.737L1150.72 790.057C1149.72 792.605 1145.8 800.625 1141.93 808.383ZM1269.39 851.969L1216.49 844.998L1270.64 832.481L1269.43 851.969L1269.39 851.969ZM1338.7 861.113L1271.68 852.269L1272.93 832.331L1344.95 842.974L1338.7 861.113ZM1353.44 817.265L1317.58 797.964L1323.2 773.941L1346.9 785.784C1347.45 786.047 1348.15 785.897 1348.49 785.372C1348.78 784.885 1348.61 784.248 1348.03 783.948L1323.62 771.768C1323.62 771.393 1323.54 771.056 1323.33 770.718L1315.21 758.951L1324.04 746.021L1369.77 774.091L1360.32 787.508C1360.15 787.733 1360.07 787.958 1359.98 788.22L1353.53 817.303L1353.44 817.265ZM1405.93 772.217L1374.15 817.827L1358.82 814.304L1364.36 789.382L1385.64 759.213L1405.89 772.217L1405.93 772.217ZM1406.3 722.26L1370.94 772.33L1325.16 744.222L1357.9 696.214C1373.23 704.046 1390.06 713.078 1406.3 722.223L1406.3 722.26ZM1353.86 694.19L1310.46 757.864C1310 758.538 1310 759.4 1310.46 760.037L1318.87 772.217L1312.71 798.601C1312.5 799.463 1312.96 800.363 1313.79 800.813L1352.32 821.575L1345.65 840.988L1272.05 830.12L1271.97 830.12C1271.97 830.12 1271.93 830.12 1271.89 830.12C1271.8 830.12 1271.68 830.12 1271.6 830.12L1238.73 837.728L1236.19 815.691C1236.15 815.241 1235.73 814.867 1235.23 814.754L1225.23 813.143L1222.78 794.329C1222.69 793.842 1222.28 793.467 1221.74 793.43L1205.78 792.193L1205.7 792.193C1205.12 792.193 1204.62 792.605 1204.53 793.13C1204.49 793.692 1204.95 794.217 1205.57 794.254L1220.57 795.416L1223.03 814.154C1223.07 814.604 1223.49 814.979 1223.99 815.054L1233.98 816.628L1236.48 838.215L1210.61 844.211L1144.39 835.479L1148.26 821.2C1150.26 817.265 1160.3 797.29 1161.88 793.017C1162.21 792.08 1163.3 787.92 1167.84 769.894L1198.08 769.894L1201.78 780.987C1201.87 781.287 1202.12 781.512 1202.41 781.624C1202.7 781.737 1203.08 781.737 1203.37 781.624L1216.78 776.19C1217.36 775.965 1217.61 775.328 1217.36 774.803C1217.11 774.279 1216.4 774.054 1215.82 774.279L1203.58 779.226L1199.99 768.507C1199.83 768.057 1199.41 767.758 1198.87 767.758L1168.25 767.758C1168.38 767.233 1168.5 766.783 1168.63 766.259C1171.13 756.402 1174.25 743.922 1177.88 729.756L1217.28 736.427L1209.99 749.094L1190.5 746.283C1189.87 746.208 1189.29 746.583 1189.16 747.145C1189.08 747.707 1189.5 748.232 1190.12 748.344L1210.45 751.268C1210.95 751.343 1211.45 751.118 1211.66 750.706L1219.65 736.839L1245.27 741.898L1240.73 748.869C1240.4 749.356 1240.61 749.993 1241.15 750.293C1241.69 750.593 1242.4 750.406 1242.73 749.919L1256.23 729.306L1285.47 735.302C1286.09 735.452 1286.72 735.078 1286.84 734.515C1286.97 733.953 1286.59 733.391 1285.97 733.279L1182.37 712.104C1185.75 698.837 1189.41 684.596 1193.29 669.83L1258.56 686.057C1258.85 686.132 1259.18 686.095 1259.47 685.945L1267.3 681.748L1290.84 690.78C1291.13 690.892 1291.46 690.892 1291.76 690.78C1292.05 690.667 1292.26 690.442 1292.38 690.18L1300.17 671.067C1302.96 672.041 1305.67 672.978 1308.21 673.765C1317.5 676.613 1334.24 684.258 1353.86 694.152L1353.86 694.19ZM1338.66 674.964C1327.66 669.83 1318.33 665.932 1311.96 663.946C1306.08 662.147 1299.46 659.711 1292.55 656.938L1299.42 644.608C1299.71 644.083 1299.46 643.483 1298.92 643.221C1298.75 643.146 1298.59 643.109 1298.42 643.109C1298 643.109 1297.59 643.333 1297.38 643.671L1290.46 656.076C1270.89 648.13 1249.52 637.824 1237.48 632.015C1231.19 628.98 1228.57 627.705 1227.36 627.293C1226.57 627.031 1225.28 626.656 1223.69 626.244L1230.77 589.141L1353.61 641.197C1348.11 654.239 1342.24 667.206 1338.66 675.002L1338.66 674.964ZM1354.44 639.211L1231.15 586.968L1236.02 545.518L1343.61 589.554L1336.37 604.657C1336.12 605.144 1336.37 605.744 1336.91 606.006L1362.77 618.149C1360.48 624.482 1357.57 631.828 1354.49 639.248L1354.44 639.211ZM1365.32 610.578C1364.77 612.302 1364.15 614.139 1363.48 616.125L1338.91 604.619L1345.7 590.453L1367.81 599.523C1367.15 603.533 1366.32 607.28 1365.27 610.616L1365.32 610.578ZM1370.61 545.406C1370.77 551.552 1371.27 577.036 1368.19 597.349L1236.27 543.344L1241.31 500.32L1370.61 545.406ZM1237.9 478.809C1230.19 475.211 1212.82 467.041 1179.37 451.225L1197.41 414.723L1261.85 435.785L1237.9 478.846L1237.9 478.809ZM1250.1 480.158L1261.52 459.62L1354.53 462.206L1250.1 480.158ZM1415.42 434.361L1421.21 438.97L1369.48 459.62L1364.94 460.407L1262.64 457.596L1273.8 437.509L1415.42 434.398L1415.42 434.361ZM1404.26 404.229L1391.14 406.74C1390.6 406.852 1390.22 407.265 1390.22 407.752L1390.22 432.824L1356.28 433.574L1356.28 355.134C1358.65 352.998 1360.98 350.824 1363.32 348.688L1364.07 382.23C1364.07 382.642 1364.36 383.017 1364.77 383.167L1372.02 385.978L1370.19 411.687C1370.19 412.249 1370.65 412.774 1371.27 412.774C1371.9 412.774 1372.48 412.361 1372.52 411.799L1374.27 386.84L1393.14 394.185C1393.64 394.372 1394.26 394.223 1394.56 393.81L1398.97 387.851L1407.34 388.788L1404.26 404.266L1404.26 404.229ZM1407.76 386.727C1407.76 386.727 1407.68 386.727 1407.64 386.727L1398.55 385.715C1398.1 385.678 1397.68 385.828 1397.43 386.165L1393.14 391.936L1366.31 381.518L1365.57 346.589C1373.98 338.869 1382.02 331.336 1389.18 324.44L1390.27 360.68C1390.27 361.243 1390.81 361.692 1391.43 361.692L1400.05 361.692L1398.51 375.559C1398.47 376.121 1398.89 376.608 1399.51 376.683L1409.47 378.032L1407.76 386.69L1407.76 386.727ZM1430.21 378.07L1410.97 376.159L1400.97 374.809L1402.43 361.842L1429.09 364.728C1429.3 364.728 1429.5 364.728 1429.67 364.653L1430.25 378.107L1430.21 378.07ZM1429.54 362.704C1429.54 362.704 1429.42 362.629 1429.29 362.629L1401.47 359.631C1401.47 359.631 1401.39 359.631 1401.35 359.631L1392.56 359.631L1391.43 322.266C1391.89 321.854 1392.31 321.442 1392.72 320.992L1427.75 320.992L1429.5 362.667L1429.54 362.704ZM1426.38 287.562L1427.71 318.931L1394.93 318.931C1405.8 308.325 1413.88 299.817 1416.84 295.358C1419.34 291.535 1421.26 286.888 1422.8 281.454L1426.42 287.6L1426.38 287.562ZM1437.42 39.6883C1431.96 87.8465 1426.13 138.89 1422.92 165.312C1422.67 167.448 1422.42 169.547 1422.17 171.646L1381.85 175.581L1380.94 175.656L1394.76 34.7788C1394.76 34.7788 1394.76 34.4415 1394.64 34.2916L1437.42 39.7632L1437.42 39.6883ZM1371.77 31.3309L1392.72 33.9917C1392.72 33.9917 1392.47 34.3291 1392.43 34.554L1378.6 175.805L1350.61 177.754L1371.77 31.3309ZM1369.48 31.0311L1362.4 79.9013L1284.34 57.0402L1299.21 20.9497L1369.48 31.0311ZM1276.3 17.6517C1276.3 17.6517 1276.18 17.7642 1276.18 17.8016L1262.47 56.3656C1262.26 56.9277 1262.6 57.49 1263.22 57.6774C1263.85 57.8648 1264.47 57.5649 1264.68 57.0028L1278.38 18.4387C1278.38 18.4387 1278.43 18.1014 1278.38 17.9515L1296.84 20.6124L1281.72 57.3401C1281.59 57.6024 1281.63 57.9022 1281.76 58.1646C1281.88 58.4269 1282.13 58.6143 1282.43 58.6893L1362.07 82.0001L1353.9 138.366L1318.83 134.168C1312.29 124.799 1288.67 105.086 1265.56 86.7971L1275.01 70.7194L1297.13 84.2112L1295.59 91.5567C1295.5 91.894 1295.63 92.2688 1295.92 92.5311L1303.71 99.0521C1304.17 99.4269 1304.92 99.4269 1305.33 99.0147C1305.75 98.6025 1305.75 97.9279 1305.29 97.5531L1297.96 91.4443L1299.54 83.9863C1299.63 83.5741 1299.42 83.1619 1299.04 82.937L1275.22 68.3959C1275.22 68.3959 1274.8 68.2084 1274.55 68.2084C1274.47 68.2084 1274.34 68.2084 1274.26 68.2084C1273.93 68.2834 1273.68 68.4708 1273.51 68.7332L1263.72 85.4105C1260.35 82.7496 1257.02 80.1636 1253.77 77.6152C1253.68 77.5777 1253.64 77.5028 1253.56 77.4653C1253.14 77.1655 1211.61 47.4836 1210.11 12.1801C1210.07 10.8309 1210.07 9.4817 1210.07 8.13252L1276.22 17.6143L1276.3 17.6517ZM1209.24 45.6097C1222.65 68.3584 1244.23 84.0613 1246.39 85.5978C1250.31 88.6335 1254.31 91.7816 1258.27 94.8922L1228.9 144.962L1196.29 130.908L1204.37 107.072C1204.57 106.51 1204.2 105.948 1203.62 105.761C1203.49 105.761 1203.41 105.723 1203.28 105.723C1202.78 105.723 1202.33 106.023 1202.16 106.473L1194.16 130.008L1175.92 122.138L1192.7 80.0887C1192.87 79.6765 1192.7 79.1893 1192.33 78.9269L1184.29 73.0805L1209.24 45.6472L1209.24 45.6097ZM1158.26 61.7249L1181.96 74.0549L1190.2 80.0513L1173.75 121.201L1159.71 115.167C1159.71 115.167 1159.38 115.055 1159.21 115.055C1159.09 115.055 1158.92 115.055 1158.8 115.13C1158.51 115.242 1158.26 115.43 1158.13 115.692L1145.8 141.401L1132.26 135.742L1158.21 61.7249L1158.26 61.7249ZM1156.17 60.7505L1148.22 83.4242L1110.44 73.6051L1118.27 46.1718L1156.17 60.713L1156.17 60.7505ZM1095.19 3.41041L1154.17 17.8016L1137.3 51.2687L1117.94 43.8483L1088.28 34.0292L1095.23 3.4853L1095.19 3.41041ZM1045.04 7.49544L1088.95 20.4625L1085.78 34.404L1072.12 80.1262L1035.63 76.6782L1045 7.45796L1045.04 7.49544ZM1033.67 91.6317L1060.41 96.7661C1061.04 96.8785 1061.66 96.5412 1061.79 95.979C1061.91 95.4169 1061.54 94.8548 1060.91 94.7423L1033.96 89.5705L1035.42 78.8145L1072.91 82.3374C1073.49 82.4123 1073.99 82.075 1074.16 81.5878L1087.74 36.053L1116.14 45.4599L1101.98 95.0047C1101.94 95.192 1101.94 95.4169 1101.98 95.6043L1106.31 106.847L1100.9 127.985L1031.88 104.824L1033.67 91.6317ZM990.102 72.7057L1032.13 85.7103L1030.3 99.2771L987.352 86.0476C988.31 81.4754 989.227 77.0156 990.143 72.7432L990.102 72.7057ZM986.894 88.1088L1030.01 101.376L1027.26 121.613C1002.1 111.907 984.645 105.161 984.062 104.936C983.853 104.861 983.645 104.786 983.395 104.749C984.603 99.0521 985.77 93.5056 986.894 88.1464L986.894 88.1088ZM981.229 115.167C990.06 118.578 1027.42 133.044 1069.83 149.347L1065.99 162.314L978.564 127.76C979.48 123.525 980.355 119.327 981.229 115.167ZM978.105 129.858L1065.41 164.337L1057.54 190.984L973.398 151.932C974.981 144.512 976.564 137.129 978.147 129.858L978.105 129.858ZM972.899 154.069L1056.75 192.97L1023.34 257.468L955.029 233.783C960.611 210.21 966.817 182.064 972.899 154.069ZM969.983 112.432C967.567 123.825 965.109 135.405 962.61 146.986L896.465 116.292L905.628 95.9415C932.953 103.587 956.862 109.358 969.941 112.432L969.983 112.432ZM903.421 95.3419L894.382 115.355L894.257 115.355C894.257 115.355 894.007 115.205 893.882 115.205L879.97 113.331C879.97 113.331 879.845 113.331 879.803 113.331C879.47 113.331 879.178 113.443 878.929 113.668L863.892 128.772L830.027 102.538C840.149 93.618 849.521 85.1856 854.686 80.5009C871.014 85.9351 887.717 90.9571 903.379 95.3419L903.421 95.3419ZM788.249 53.7423C805.993 62.9616 828.778 71.7688 852.395 79.714C834.484 95.9416 800.537 126.111 790.457 132.519C790.457 132.519 790.415 132.519 790.373 132.557C789.499 133.119 788.791 133.494 788.291 133.644C786.041 134.356 758.467 145.074 720.021 160.103L698.153 101.226L765.09 73.2304C765.09 73.2304 765.173 73.193 765.215 73.1555C765.298 73.1555 765.34 73.0805 765.381 73.0431C765.381 73.0431 765.423 73.0431 765.465 73.0056L786.208 52.6555C786.916 53.0302 787.583 53.3675 788.291 53.7423L788.249 53.7423ZM784.084 51.6061L764.298 70.9818L732.933 56.1784L738.182 30.8062C752.844 36.4653 767.964 43.3611 784.084 51.5686L784.084 51.6061ZM736.016 30.0192L730.517 56.5905C730.434 57.0402 730.684 57.49 731.101 57.7148L761.924 72.256L697.361 99.2396L677.493 45.7596L684.74 43.9233C685.99 43.6235 686.698 42.4616 686.323 41.3373C686.032 40.4378 685.115 39.8008 684.116 39.8008C683.907 39.8008 683.699 39.8008 683.491 39.8757L676.076 41.7496L666.121 11.9177C689.53 15.1032 712.148 20.9498 735.974 29.9818L736.016 30.0192ZM615.804 9.03202C632.507 8.84464 648.252 9.6691 663.664 11.6179L673.91 42.3492L607.348 59.2514L588.604 10.1188C598.434 9.5192 607.64 9.10697 615.846 9.03202L615.804 9.03202ZM586.188 10.2688L590.812 22.3363L497.467 38.0768L494.218 19.3382C522.959 15.8154 557.073 12.1426 586.188 10.2313L586.188 10.2688ZM432.737 27.5457C437.902 26.7961 461.77 23.3483 491.927 19.638L495.176 38.4516L432.446 49.0202L432.737 27.5083L432.737 27.5457ZM432.446 51.1938L450.482 48.1582C451.106 52.2057 451.773 56.7404 452.481 61.2751L432.279 63.1116L432.446 51.2314L432.446 51.1938ZM432.279 65.1728L452.814 63.299C454.605 75.4042 456.271 86.8346 456.271 87.809C456.271 88.3711 456.771 88.8584 457.438 88.8584C458.104 88.8584 458.604 88.4086 458.604 87.809C458.604 86.6097 456.771 74.0924 455.105 63.1116L498.758 59.139L505.756 99.7643L458.521 103.849L431.779 101.451L432.237 65.1728L432.279 65.1728ZM430.28 27.7331C430.28 27.7331 430.363 27.7331 430.446 27.7331L430.155 49.0951L393.416 46.4342L395.874 25.1471L430.238 27.6956L430.28 27.7331ZM333.852 20.5375L393.583 24.9973L391.125 46.2843L361.801 44.1856L330.353 41.937L333.894 20.575L333.852 20.5375ZM273.371 13.0421L294.073 17.5393C294.073 17.5393 294.24 17.5393 294.323 17.5393C294.531 17.5393 294.74 17.6142 294.948 17.6517L331.561 20.3876L328.021 41.7496L268.04 37.4397C270.414 26.4589 272.247 18.1016 273.33 13.0796L273.371 13.0421ZM267.623 39.4635L327.687 43.7733L321.106 83.6116L259.376 77.3155C262.5 62.8493 265.291 50.0321 267.581 39.4261L267.623 39.4635ZM258.959 79.4142L320.773 85.7103L320.023 90.2825L314.275 125.174L312.276 137.166L307.402 166.848L302.487 196.568L297.822 224.788C285.034 232.171 275.662 237.306 273.496 237.868C270.789 237.755 250.795 234.907 226.095 231.272C237.716 177.155 249.795 121.501 258.959 79.1893L258.959 79.4142ZM225.22 235.582C249.379 239.142 271.205 242.253 273.663 242.253C275.454 242.253 284.284 237.643 296.322 230.785L288.2 257.468L257.293 267.625C257.293 267.625 257.251 267.625 257.21 267.625L240.757 273.021C240.757 273.021 240.715 273.021 240.673 273.021L215.39 281.341C218.555 266.463 221.888 251.097 225.22 235.544L225.22 235.582ZM214.89 283.777L239.757 275.607L233.134 326.314L206.393 323.541C209.058 310.948 211.933 297.606 214.848 283.777L214.89 283.777ZM205.976 325.602L234.009 328.525L247.255 329.912L265.124 331.748L248.296 358.357C248.296 358.357 248.171 358.582 248.171 358.694L228.344 465.804L175.611 482.744C179.818 458.496 184.15 433.686 187.149 416.746C189.273 404.829 196.479 370.125 205.934 325.602L205.976 325.602ZM110.84 356.333C108.007 349.287 104.508 343.104 101.384 337.632C94.5949 325.677 91.3043 319.231 97.5523 314.808C106.424 308.475 179.526 292.172 202.394 287.15C199.77 299.368 197.271 311.173 194.896 322.379L173.736 320.168C173.07 320.093 172.528 320.505 172.445 321.067C172.362 321.629 172.82 322.154 173.445 322.229L194.438 324.403C186.691 360.98 180.443 390.887 177.319 406.89L126.21 399.207C121.836 386.24 115.713 368.513 110.84 356.333ZM109.923 564.706L104.258 453.924L131.583 416.746C131.791 416.484 131.833 416.184 131.708 415.884C131.666 415.734 129.75 409.851 126.918 401.456L176.86 408.951C176.402 411.387 175.986 413.486 175.694 415.097C167.988 458.346 151.785 552.864 150.785 558.747C138.789 562.87 127.251 566.843 116.421 570.553L109.84 564.706L109.923 564.706ZM216.056 547.504L231.635 592.327L75.3927 642.471L51.4836 622.871L46.152 605.819C65.7291 599.11 140.247 573.551 216.056 547.467L216.056 547.504ZM49.6925 673.39L40.3205 644.308L42.1949 629.205C42.1949 629.205 42.3615 629.392 42.4448 629.467L90.2213 668.631L55.4407 672.603L49.6925 673.39ZM86.764 809.208L46.9434 697.863L56.4404 674.627L92.4706 670.504L113.422 687.706C115.297 692.504 122.003 709.406 123.419 712.629C124.46 714.952 138.081 733.054 153.743 753.554L134.665 768.957C134.249 769.294 134.166 769.819 134.416 770.231L147.661 792.493L124.127 808.346C124.127 808.346 123.877 808.533 123.836 808.645L110.34 829.633L86.7224 809.245L86.764 809.208ZM108.382 832.743L99.9265 845.898L90.6378 854.068L82.5154 844.923L90.013 827.871L108.382 832.706L108.382 832.743ZM87.7637 827.309L80.8076 843.087L66.1873 826.672L70.1027 822.662L87.7637 827.309ZM67.6868 821.987L64.771 824.985L60.3558 820.038L67.6868 821.987ZM18.2025 803.923L33.531 793.205L53.9828 816.178L21.9097 807.708C20.6601 806.434 19.4521 805.197 18.2442 803.923L18.2025 803.923ZM24.7421 810.632L56.482 819.027L63.1049 826.484L50.359 836.304C42.0699 828.133 33.3644 819.439 24.7421 810.669L24.7421 810.632Z" fill="url(#paint0_linear_5367_699)" fill-opacity="0.2"/>
<defs>
<linearGradient id="paint0_linear_5367_699" x1="720" y1="45.5" x2="720" y2="824.5" gradientUnits="userSpaceOnUse">
<stop stop-color="white" stop-opacity="0.2"/>
<stop offset="0.491816" stop-color="#6AB4C0" stop-opacity="0.53229"/>
<stop offset="1" stop-color="white"/>
</linearGradient>
</defs>
</svg>
