<svg width="106" height="106" viewBox="0 0 106 106" fill="none" xmlns="http://www.w3.org/2000/svg">
<g clip-path="url(#clip0_4628_2882)">
<path d="M13.25 39.75H39.75V13.25H13.25V39.75ZM17.6667 17.6667H35.3333V35.3333H17.6667V17.6667ZM22.0833 22.0833H30.9167V30.9167H22.0833V22.0833ZM66.25 39.75H92.75V13.25H66.25V39.75ZM70.6667 17.6667H88.3333V35.3333H70.6667V17.6667ZM75.0833 22.0833H83.9167V30.9167H75.0833V22.0833ZM13.25 92.75H39.75V66.25H13.25V92.75ZM17.6667 70.6667H35.3333V88.3333H17.6667V70.6667ZM22.0833 75.0833H30.9167V83.9167H22.0833V75.0833ZM88.3333 83.9167H92.75V92.75H83.9167V79.5H88.3333V83.9167ZM88.3333 70.6667H92.75V75.0833H88.3333V70.6667ZM88.3333 66.25V70.6667H83.9167V66.25H88.3333ZM44.1667 75.0833H48.5833V92.75H44.1667V75.0833ZM26.5 44.1667V53H17.6667V48.5833H13.25V44.1667H26.5ZM44.1667 30.9167H48.5833V35.3333H44.1667V30.9167ZM57.4167 17.6667V26.5H53V13.25H61.8333V17.6667H57.4167ZM44.1667 17.6667H48.5833V22.0833H44.1667V17.6667ZM88.3333 53H92.75V61.8333H83.9167V57.4167H88.3333V53ZM83.9167 44.1667V48.5833H75.0833V57.4167H66.25V53H70.6667V44.1667H83.9167ZM53 61.8333H48.5833V57.4167H44.1667V53H53V61.8333ZM79.5 70.6667H83.9167V75.0833H79.5V70.6667ZM88.3333 48.5833V53H83.9167V48.5833H88.3333ZM48.5833 61.8333V66.25H44.1667V61.8333H48.5833ZM75.0833 83.9167H79.5V92.75H70.6667V83.9167H75.0833ZM61.8333 83.9167H66.25V88.3333H61.8333V92.75H53V88.3333H57.4167V83.9167H61.8333ZM61.8333 79.5V75.0833H70.6667V79.5H61.8333ZM61.8333 57.4167H66.25V70.6667H61.8333V75.0833H57.4167V79.5H53V70.6667H48.5833V66.25H61.8333V61.8333H57.4167V57.4167H61.8333ZM22.0833 57.4167V61.8333H17.6667V57.4167H22.0833ZM75.0833 75.0833H70.6667V70.6667H75.0833V75.0833ZM79.5 66.25H70.6667V61.8333H79.5V66.25ZM35.3333 44.1667H39.75V48.5833H35.3333V53H39.75V61.8333H35.3333V57.4167H30.9167V61.8333H26.5V53H30.9167V44.1667H35.3333ZM48.5833 44.1667V35.3333H61.8333V48.5833H53V44.1667H57.4167V39.75H53V44.1667H48.5833ZM48.5833 26.5H53V30.9167H48.5833V26.5ZM44.1667 44.1667H48.5833V48.5833H44.1667V44.1667ZM57.4167 30.9167V26.5H61.8333V30.9167H57.4167Z" fill="#303133"/>
</g>
<defs>
<clipPath id="clip0_4628_2882">
<rect width="106" height="106" fill="white"/>
</clipPath>
</defs>
</svg>
