<svg width="106" height="106" viewBox="0 0 106 106" fill="none" xmlns="http://www.w3.org/2000/svg">
<path d="M88.4546 17.5455H67.1818V38.8182H88.4546V17.5455Z" stroke="#303133" stroke-width="5.5" stroke-miterlimit="10"/>
<path d="M38.8182 17.5455H17.5454V38.8182H38.8182V17.5455Z" stroke="#303133" stroke-width="5.5" stroke-miterlimit="10"/>
<path d="M38.8182 67.1818H17.5454V88.4546H38.8182V67.1818Z" stroke="#303133" stroke-width="5.5" stroke-miterlimit="10"/>
<path d="M31.7273 24.6364H24.6364V31.7273H31.7273V24.6364Z" fill="#303133"/>
<path d="M81.3636 24.6364H74.2727V31.7273H81.3636V24.6364Z" fill="#303133"/>
<path d="M31.7273 74.2727H24.6364V81.3636H31.7273V74.2727Z" fill="#303133"/>
<path d="M53 14V38.8182" stroke="#303133" stroke-width="5.5" stroke-miterlimit="10"/>
<path d="M56.5455 70.7273V92" stroke="#303133" stroke-width="5.5" stroke-miterlimit="10"/>
<path d="M70.7273 84.9091V92" stroke="#303133" stroke-width="5.5" stroke-miterlimit="10"/>
<path d="M77.8182 77.8182V84.9091" stroke="#303133" stroke-width="5.5" stroke-miterlimit="10"/>
<path d="M88.4545 84.9091V92" stroke="#303133" stroke-width="5.5" stroke-miterlimit="10"/>
<path d="M53 24.6364H60.0909" stroke="#303133" stroke-width="5.5" stroke-miterlimit="10"/>
<path d="M42.3636 45.9091H70.7273" stroke="#303133" stroke-width="5.5" stroke-miterlimit="10"/>
<path d="M14 53H21.0909" stroke="#303133" stroke-width="5.5" stroke-miterlimit="10"/>
<path d="M21.0909 45.9091H28.1818" stroke="#303133" stroke-width="5.5" stroke-miterlimit="10"/>
<path d="M28.1818 53H35.2727" stroke="#303133" stroke-width="5.5" stroke-miterlimit="10"/>
<path d="M70.7273 53H77.8182" stroke="#303133" stroke-width="5.5" stroke-miterlimit="10"/>
<path d="M77.8182 45.9091H84.9091" stroke="#303133" stroke-width="5.5" stroke-miterlimit="10"/>
<path d="M84.9091 53H92" stroke="#303133" stroke-width="5.5" stroke-miterlimit="10"/>
<path d="M70.7273 67.1818H77.8182" stroke="#303133" stroke-width="5.5" stroke-miterlimit="10"/>
<path d="M77.8182 60.0909H84.9091" stroke="#303133" stroke-width="5.5" stroke-miterlimit="10"/>
<path d="M84.9091 67.1818H92" stroke="#303133" stroke-width="5.5" stroke-miterlimit="10"/>
<path d="M35.2727 60.0909H63.6364" stroke="#303133" stroke-width="5.5" stroke-miterlimit="10"/>
<path d="M56.5455 74.2727H84.9091" stroke="#303133" stroke-width="5.5" stroke-miterlimit="10"/>
<path d="M49.4545 53H56.5454" stroke="#303133" stroke-width="5.5" stroke-miterlimit="10"/>
<path d="M45.9091 31.7273H53" stroke="#303133" stroke-width="5.5" stroke-miterlimit="10"/>
</svg>
